<?xml version="1.0" encoding="UTF-8" standalone="no"?><!DOCTYPE svg PUBLIC "-//W3C//DTD SVG 1.1//EN" "http://www.w3.org/Graphics/SVG/1.1/DTD/svg11.dtd"><svg width="100%" height="100%" viewBox="0 0 1726 387" version="1.1" xmlns="http://www.w3.org/2000/svg" xmlns:xlink="http://www.w3.org/1999/xlink" xml:space="preserve" xmlns:serif="http://www.serif.com/" style="fill-rule:evenodd;clip-rule:evenodd;stroke-miterlimit:10;"><path d="M63.897,318.064c5.472,1.282 14.722,1.282 22.281,1.282c58.45,0.403 96.706,-31.544 96.706,-99.219c0,-60.969 -34.465,-89.988 -89.978,-89.988c-13.872,0 -23.537,1.253 -29.009,2.541l0,185.384Zm-63.897,-230.784c23.547,-4.209 54.234,-6.322 86.178,-6.322c54.225,0 89.556,8.819 116.466,29.434c29.418,21.85 47.915,57.191 47.915,107.654c0,54.212 -19.756,91.618 -46.662,114.734c-29.831,24.828 -75.672,36.591 -131.163,36.591c-33.215,0 -57.184,-2.107 -72.734,-4.213l0,-277.878Z" style="fill:#fdbb30;fill-rule:nonzero;"/><path d="M468.328,300.419c0,26.903 0.847,48.756 1.681,65.997l-55.493,0l-2.96,-29.003l-1.259,0c-7.969,12.615 -27.313,33.644 -64.306,33.644c-42.047,0 -72.3,-26.088 -72.3,-89.566l0,-120.656l63.897,0l0,110.575c0,29.856 9.65,47.937 32.359,47.937c17.662,0 28.175,-12.19 31.962,-22.284c1.682,-3.778 2.516,-8.425 2.516,-13.885l0,-122.343l63.903,0l0,139.584Z" style="fill:#fdbb30;fill-rule:nonzero;"/><path d="M599.387,325.218c25.244,0 40.781,-24.8 40.781,-61.81c0,-30.265 -11.768,-61.381 -40.781,-61.381c-30.259,0 -42.037,31.116 -42.037,61.819c0,34.9 14.725,61.372 41.628,61.372l0.409,0Zm-1.272,45.837c-60.097,0 -106.34,-39.55 -106.34,-105.978c0,-66.415 43.715,-108.878 110.14,-108.878c62.647,0 104.685,43.325 104.685,105.525c0,74.847 -53.403,109.331 -108.047,109.331l-0.438,0Z" style="fill:#fdbb30;fill-rule:nonzero;"/><path d="M894.563,361.381c-11.357,5.462 -32.797,9.675 -57.182,9.675c-66.425,0 -108.878,-40.766 -108.878,-105.541c0,-60.118 41.194,-109.315 117.703,-109.315c16.835,0 35.316,2.959 48.757,8.006l-10.075,47.509c-7.569,-3.359 -18.91,-6.318 -35.732,-6.318c-33.64,0 -55.506,23.965 -55.097,57.603c0,37.834 25.238,58.025 56.341,58.025c15.141,0 26.919,-2.522 36.584,-6.732l7.579,47.088Z" style="fill:#fdbb30;fill-rule:nonzero;"/><path d="M1016.64,105.375l0,151.153c0,45.194 17.125,68.182 47.522,68.182c31.172,0 48.303,-21.807 48.303,-68.182l0,-151.153l59.206,0l0,147.26c0,81.025 -40.9,119.622 -109.456,119.622c-66.234,0 -105.197,-36.632 -105.197,-120.388l0,-146.494l59.622,0Z" style="fill:#05263e;fill-rule:nonzero;"/><path d="M1406.37,360.557c-10.897,5.45 -35.463,11.7 -67.403,11.7c-90.766,0 -137.494,-56.897 -137.494,-131.687c0,-89.603 63.884,-139.482 143.34,-139.482c30.76,0 54.166,6.244 64.679,11.722l-12.094,47.113c-12.066,-5.044 -28.816,-9.731 -49.856,-9.731c-47.144,0 -83.757,28.431 -83.757,86.856c0,52.6 31.166,85.715 84.157,85.715c17.903,0 37.784,-3.893 49.456,-8.55l8.972,46.344Z" style="fill:#05263e;fill-rule:nonzero;"/><text x="1403.7px" y="94.386px" style="font-family:'LucidaGrande', 'Lucida Grande', sans-serif;font-weight:500;font-size:53.612px;fill:#05263e;">R</text><path d="M1629.37,172.791c1.644,0 2.978,-1.328 2.978,-2.965c0,-1.635 -1.334,-2.969 -2.978,-2.969c-1.638,0 -2.963,1.334 -2.963,2.969c0,1.637 1.325,2.965 2.963,2.965" style="fill:#697d8b;fill-rule:nonzero;"/><path d="M1535.36,288.164c-0.478,0 -0.868,0.397 -0.868,0.875c0,0.487 0.39,0.875 0.868,0.875c0.482,0 0.875,-0.388 0.875,-0.875c0,-0.478 -0.393,-0.875 -0.875,-0.875" style="fill:#697d8b;fill-rule:nonzero;"/><path d="M1572.16,289.915c0.478,0 0.869,-0.388 0.869,-0.875c0,-0.482 -0.391,-0.875 -0.869,-0.875c-0.488,0 -0.875,0.393 -0.875,0.875c0,0.487 0.387,0.875 0.875,0.875" style="fill:#697d8b;fill-rule:nonzero;"/><path d="M1510.24,273.632c2.519,1.446 3.372,4.646 3.372,4.646c0,0 -3.197,0.854 -5.716,-0.596c-2.497,-1.444 -3.381,-4.644 -3.381,-4.644c0,0 3.222,-0.86 5.725,0.594m-3.281,-14.46c0,0 3.037,0.269 4.734,2.303c1.712,2.028 1.447,5.053 1.447,5.053c0,0 -3.028,-0.265 -4.735,-2.3c-1.696,-2.031 -1.446,-5.056 -1.446,-5.056m4.059,8.378c2.228,1.86 2.519,5.16 2.519,5.16c0,0 -3.297,0.287 -5.535,-1.575c-2.2,-1.866 -2.506,-5.163 -2.506,-5.163c0,0 3.306,-0.284 5.522,1.578m0.091,-14.747c5.396,0 10.246,1.988 13.65,5.147l-0.65,0.772c-2.535,-1.512 -5.625,-2.394 -8.975,-2.394c-8.579,0 -14.25,5.816 -14.25,12.994c0,6.038 3.631,11.01 10.309,12.575c4.125,0.969 4.878,3.228 4.878,4.413l0,1.256l-3.706,0c-0.191,-1.363 -1.431,-2.203 -4.95,-2.928c-8.8,-1.825 -13.678,-7.597 -13.678,-15.769c0,-8.872 7.072,-16.066 17.372,-16.066m5.471,8.672c1.713,-2.034 4.729,-2.303 4.729,-2.303c0,0 0.265,3.025 -1.447,5.056c-1.697,2.035 -4.728,2.3 -4.728,2.3c0,0 -0.266,-3.025 1.446,-5.053m0.672,6.075c2.213,-1.862 5.525,-1.578 5.525,-1.578c0,0 -0.303,3.297 -2.518,5.163c-2.216,1.862 -5.519,1.575 -5.519,1.575c0,0 0.303,-3.3 2.512,-5.16m3.119,10.132c-2.503,1.45 -5.709,0.596 -5.709,0.596c0,0 0.869,-3.2 3.375,-4.646c2.512,-1.454 5.709,-0.594 5.709,-0.594c0,0 -0.862,3.2 -3.375,4.644m-1.972,28.35c0,1.856 -1.862,3.362 -4.169,3.362c-2.3,0 -4.165,-1.506 -4.165,-3.362l1.537,-15.197l5.269,0l1.528,15.197Zm16.094,-35.81l10.353,0c1.028,0 1.85,0.828 1.85,1.841l0,2.506c0.55,-0.009 1.797,0.006 2.338,0l0,-2.506c0,-1.735 -1.113,-3.306 -2.763,-3.906l-0.778,-0.288l0.684,-0.472c2.432,-1.684 5.269,-2.575 8.169,-2.575c3.047,0 5.984,0.985 8.513,2.825l0.556,0.413l-0.619,0.318c-1.4,0.732 -2.259,2.147 -2.259,3.685l0,2.506c0.54,0.006 1.781,-0.009 2.337,0l0,-2.506c0,-1.013 0.822,-1.841 1.841,-1.841l10.347,0l0,0.438c0,0.787 -0.132,1.684 -0.419,2.568l-7.056,0l0,1.15l6.606,0c-0.928,1.875 -2.65,3.444 -5.45,3.444l-2.688,0c-0.006,0.538 -0.021,1.781 -0.031,2.335l2.719,0c0,0 1.088,-0.066 1.141,-0.069l1.059,0l0,4.072l-33.2,0l0,-4.072l1.997,0.003l1.094,0.066l2.712,0c-0.015,-0.554 -0.015,-1.797 -0.031,-2.335l-2.681,0c-2.816,0 -4.544,-1.569 -5.466,-3.444l6.487,0l0,-1.15l-6.943,0c-0.272,-0.884 -0.419,-1.781 -0.419,-2.568l0,-0.438Zm25.053,20.522c0,0 0.328,-2.694 0.366,-3.65l1.934,0c-0.684,0.697 -2.3,3.65 -2.3,3.65m-8.562,-3.662l5.646,0l-0.334,8.031c-0.959,0.556 -2.328,1.112 -3.775,1.706c-0.366,0.144 -0.747,0.297 -1.128,0.45l-0.409,-10.187Zm25.837,2.018c0,0 -0.147,0.878 -0.147,0.885c-0.122,0.372 -1.994,1.825 -4.703,1.825c-2.566,0 -4.059,-1.241 -5.2,-0.107c-0.837,0.854 -2.125,2.635 -3.137,4.654c-0.813,1.618 -2.094,2.778 -3.569,3.696c-1.522,0.879 -3.313,1.632 -5.056,2.369c-1.141,0.472 -2.297,0.966 -3.388,1.491l0,-0.053c-2.084,0.959 -3.606,2.018 -3.606,3.737c0,1.213 1.194,2.147 2.837,3.053c-1.103,0.619 -2.168,1.272 -3.15,2.025c-1.765,-1.278 -3.131,-2.878 -3.131,-5.078c0,-2.709 1.594,-4.49 3.678,-5.8c1.728,-0.965 3.6,-1.728 5.316,-2.428c1.872,-0.759 3.5,-1.422 4.694,-2.231c0.018,-0.013 0.031,-0.022 0.046,-0.028c0.982,-0.635 1.775,-1.363 2.238,-2.294c3.487,-6.966 7.422,-8.525 10.347,-8.45c2.678,0 5.244,2.109 5.931,2.734m-24.544,18.241c0,-0.847 0.685,-1.531 1.522,-1.531c0.844,0 1.538,0.684 1.538,1.531c0,0.844 -0.694,1.528 -1.538,1.528c-0.837,0 -1.522,-0.684 -1.522,-1.528m5.16,6.834l0.015,0c-0.44,0.238 -0.906,0.472 -1.378,0.71c-1.634,0.806 -2.937,1.384 -4.375,2.418c-0.115,0.069 -0.206,0.147 -0.306,0.216c-0.031,0.028 -0.091,0.066 -0.128,0.097c-0.01,0.009 -0.016,0.009 -0.025,0.016c-0.706,0.578 -1.125,1.15 -1.125,1.79c0,1.025 0.531,1.622 1.422,2.16c-0.966,0.74 -1.788,1.462 -2.55,2.309c-1.322,-0.853 -2.322,-2.119 -2.322,-4.469c0,-1.944 1.037,-3.35 2.444,-4.484c0.04,-0.016 0.078,-0.038 0.115,-0.063c1.447,-1.118 3.341,-2.047 5.069,-2.959c0.587,-0.322 1.159,-0.625 1.7,-0.922c2.009,-1.034 3.584,-2.003 3.584,-3.397c0,-1.353 -0.937,-2.306 -2.375,-3.112c1.21,-0.516 2.422,-1.057 3.547,-1.66c1.347,1.188 2.285,2.71 2.285,4.772c0,3.153 -2.825,5.103 -5.597,6.578m-0.447,10.963c-1.16,0.55 -1.935,0.959 -2.788,1.728c-0.578,0.509 -0.625,1.378 -0.115,1.95c0.512,0.569 1.381,0.616 1.95,0.112c0.525,-0.471 1.022,-0.759 1.859,-1.156c0.122,0.372 0.188,0.763 0.188,1.172c0,1.738 -1.3,3.181 -3.06,3.653l-0.059,1.891c0,0.631 -0.525,1.156 -1.166,1.156c-0.631,0 -1.15,-0.525 -1.15,-1.156l-0.069,-1.891c-1.771,-0.472 -3.065,-1.915 -3.065,-3.653c0,-0.806 0.228,-1.516 0.615,-2.216c1.379,-2.162 2.932,-3.106 6.007,-5.19c0.106,-0.069 0.206,-0.144 0.303,-0.206c0.025,-0.022 0.053,-0.038 0.078,-0.054c0.016,-0.015 0.028,-0.031 0.044,-0.037c0.015,-0.016 0.053,-0.047 0.084,-0.069c0.047,-0.037 0.106,-0.084 0.153,-0.137c0.425,-0.419 0.685,-0.913 0.685,-1.613c0,-0.594 -0.366,-1.134 -0.991,-1.669c0.259,-0.128 0.525,-0.265 0.8,-0.396c0.837,-0.419 1.637,-0.813 2.412,-1.241c0.741,0.916 1.235,1.981 1.235,3.306c0,3.075 -1.972,4.66 -3.95,5.716m-11.244,-38.044l1.956,0c0.016,0.956 0.219,3.528 0.219,3.528c0,0 -1.491,-2.831 -2.175,-3.528m-1.781,9.263c-1.006,-2.019 -2.294,-3.8 -3.131,-4.654c-1.157,-1.134 -2.641,0.107 -5.213,0.107c-2.697,0 -4.584,-1.453 -4.697,-1.825c0,-0.007 -0.153,-0.885 -0.159,-0.885c0.706,-0.625 3.265,-2.734 5.937,-2.734c2.944,-0.075 6.872,1.484 10.353,8.45c0.632,1.25 1.835,2.131 3.304,2.894c-1.204,0.518 -2.45,1.097 -3.654,1.781c-1.128,-0.822 -2.093,-1.828 -2.74,-3.134m-60.391,-34.441l7.1,4.094c-0.144,0.937 -0.203,1.89 -0.203,2.859c0,9.463 5.434,16.738 16.281,18.978c0.853,0.181 1.425,0.331 1.822,0.466l-1.79,17.55l0,0.169c0,3.659 3.34,6.643 7.446,6.643c4.11,0 7.444,-2.984 7.444,-6.643l0,-0.169l-1.856,-18.297l-0.466,0l0,-1.256c0,-1.628 -0.647,-3.466 -2.231,-4.982c1.363,0.007 3.091,-0.212 4.706,-1.137c3.166,-1.834 4.216,-5.459 4.332,-5.866l0.54,-2.018l5.038,-2.907l0,1.26c0,2.765 1.059,5.628 3.075,7.568l0,4.972c-2.9,0.61 -5.297,2.497 -6.294,3.397l-1.378,1.241l0.412,2.419c0,0 0.16,0.625 0.191,0.793c0.759,2.244 4.331,4.125 7.878,4.125c1.394,0 2.503,-0.25 3.325,-0.44c0,0 0.038,-0.01 0.047,-0.01c0.547,0.71 1.309,1.819 1.972,3.138c0.7,1.415 1.675,2.497 2.709,3.425c-1.637,1.803 -2.475,3.912 -2.475,6.309c0,3.191 1.728,5.469 3.603,7.05c-0.847,1.235 -1.509,2.794 -1.509,4.775c0,2.891 1.159,5.25 3.366,7.094c-0.304,0.769 -0.51,1.575 -0.51,2.428c0,2.338 1.231,4.484 3.191,5.809c0.134,2.36 2.069,4.254 4.459,4.254c2.397,0 4.331,-1.894 4.478,-4.254c1.947,-1.325 3.182,-3.471 3.182,-5.809c0,-0.853 -0.216,-1.659 -0.504,-2.428c2.2,-1.844 3.341,-4.203 3.341,-7.094c0,-1.981 -0.647,-3.54 -1.491,-4.775c1.857,-1.581 3.6,-3.859 3.6,-7.05c0,-2.397 -0.837,-4.506 -2.465,-6.309c1.019,-0.928 1.994,-2.01 2.7,-3.425c0.656,-1.319 1.419,-2.428 1.965,-3.138l0.054,0.01c0.821,0.19 1.934,0.44 3.312,0.44c3.547,0 7.131,-1.881 7.878,-4.125c0.047,-0.168 0.191,-0.793 0.191,-0.793l0.425,-2.372l-1.385,-1.288c-0.868,-0.781 -2.784,-2.303 -5.206,-3.094l0,-4.543c2.581,-1.891 3.944,-5.16 3.944,-8.3l0,-3.203l-3.184,0l-7.619,0c-3.219,-3.425 -7.697,-5.563 -12.669,-5.563c-4.978,0 -9.469,2.138 -12.681,5.563l-6.563,0l9.6,-5.541c0.41,-0.241 0.557,-0.769 0.319,-1.184c-0.244,-0.41 -0.775,-0.554 -1.172,-0.316l-18.04,10.412l-1.494,-0.393c0.853,-1.744 1.028,-3.344 1.059,-3.61l0.181,-2.125l13.11,-11c0.365,-0.297 0.412,-0.843 0.106,-1.209c-0.312,-0.366 -0.853,-0.406 -1.219,-0.106l-13.175,11.053l-0.603,-0.053c0.131,-0.425 0.238,-0.835 0.322,-1.225l4.375,-5.216l-1.491,-1.397c-0.281,-0.269 -0.587,-0.528 -0.884,-0.784l5.825,-6.938c0.313,-0.365 0.259,-0.906 -0.106,-1.218c-0.366,-0.304 -0.916,-0.26 -1.219,0.106l-5.869,7c-3.868,-2.713 -8.593,-4.188 -13.618,-4.188c-3.466,0 -6.638,0.716 -9.404,1.985l-4.025,-4.788c-0.312,-0.365 -0.853,-0.415 -1.218,-0.112c-0.36,0.309 -0.413,0.853 -0.107,1.218l3.769,4.488c-1.85,1.05 -3.472,2.362 -4.85,3.891l-4.612,-3.869c-0.366,-0.313 -0.907,-0.256 -1.219,0.103c-0.306,0.362 -0.259,0.909 0.106,1.216l4.635,3.884c-1.485,1.978 -2.557,4.241 -3.157,6.681l-6.603,-3.806c-0.403,-0.238 -0.934,-0.094 -1.172,0.316c-0.234,0.415 -0.09,0.943 0.322,1.184" style="fill:#697d8b;fill-rule:nonzero;"/><path d="M1659.06,292.815c-4.332,0 -7.85,-3.522 -7.85,-7.85l15.69,0c0,4.328 -3.509,7.85 -7.84,7.85m-16.719,23.447c0,0 -1.522,0.122 -2.922,-0.222c-1.362,-0.34 -3.403,-2.168 -5.8,-3.318l1.797,-24.219c0.394,0.015 0.806,0.056 1.284,0.162c1.6,0.382 2.756,1.182 4.103,2.11c1.516,1.059 3.254,2.262 5.847,2.878c1.591,0.381 3.997,0.859 5.125,0.922c-1.203,3.128 -9.434,21.687 -9.434,21.687m-12.506,6.956c0,0.625 -0.51,1.135 -1.141,1.135c-0.641,0 -1.144,-0.51 -1.144,-1.135l-4.125,-57.746l-26.453,0c-0.031,0 -0.069,0.006 -0.094,0.006c-1.74,0 -3.159,-1.422 -3.159,-3.166c0,-1.744 1.419,-3.159 3.159,-3.159c1.744,0 3.169,1.415 3.169,3.159c0,0.078 -0.015,0.156 -0.022,0.225c5.732,0.4 17.347,0.71 25.341,-5.175c-0.731,-0.797 -1.188,-1.872 -1.188,-3.047c0,-2.493 2.025,-4.512 4.516,-4.512c2.488,0 4.506,2.019 4.506,4.512c0,1.175 -0.465,2.257 -1.197,3.053c8.01,5.888 19.666,5.569 25.382,5.169c0,-0.072 -0.016,-0.15 -0.016,-0.225c0,-1.744 1.409,-3.159 3.169,-3.159c1.734,0 3.156,1.415 3.156,3.159c0,1.744 -1.422,3.166 -3.156,3.166c-0.032,0 -0.063,-0.006 -0.094,-0.006l-26.522,0l-4.087,57.746Zm-8.138,-12.178c-0.906,-2.109 -2.056,-3.493 -3.975,-4.165c-1.666,-0.578 -3.775,-0.297 -5.975,-0.113c-2.475,0.213 -5.025,0.435 -7.309,-0.2c-1.55,-0.425 -2.694,-1.003 -3.441,-1.459c1.281,-1.966 11.338,-17.96 12.578,-19.86c0.881,0.447 2.16,1.004 3.844,1.397c1.544,0.382 3,0.413 4.416,0.347l1.665,23.041c-0.722,0.106 -1.803,1.012 -1.803,1.012m-23.378,-18.225c-4.341,0 -7.85,-3.522 -7.85,-7.85l15.697,0c0,4.328 -3.516,7.85 -7.847,7.85m8.175,-10.962l-5.953,-13.266l19.984,-0.003l1.11,15.541c-1.188,0.05 -2.36,0.018 -3.547,-0.269c-2.619,-0.625 -4.103,-1.684 -4.119,-1.691l-1.209,-0.875l-0.829,1.247l-2.834,4.294c0.1,-0.609 0.191,-1.225 0.191,-1.866l0,-3.112l-2.794,0Zm-8.175,-12.203l5.481,12.203l-10.962,0l5.481,-12.203Zm51.85,21.675c-0.847,-0.078 -1.822,-0.216 -2.856,-0.46c-2.069,-0.5 -3.435,-1.447 -4.888,-2.45c-1.437,-1.006 -2.937,-2.04 -5.062,-2.534c-0.557,-0.138 -1.157,-0.184 -1.744,-0.219l1.212,-17.078l20.013,-0.003l-5.959,13.272l-2.788,0l0,3.112c0,2.375 0.778,4.563 2.072,6.36m14.378,-9.472l-10.975,0l5.488,-12.203l5.487,12.203Zm2.697,0l-5.991,-13.331c3.157,-0.379 5.563,-3.013 5.563,-6.21c0,-3.465 -2.825,-6.281 -6.278,-6.281c-2.453,0 -4.563,1.428 -5.597,3.475c-7.91,0.316 -14.275,-0.769 -18.91,-3.284c0.16,-0.616 0.291,-1.254 0.291,-1.907c0,-4.206 -3.428,-7.618 -7.628,-7.618c-4.219,0 -7.628,3.412 -7.628,7.618c0,0.65 0.112,1.282 0.265,1.903c-4.621,2.513 -10.962,3.597 -18.856,3.291c-1.034,-2.05 -3.144,-3.478 -5.597,-3.478c-3.462,0 -6.278,2.816 -6.278,6.281c0,3.21 2.419,5.85 5.519,6.228l-5.975,13.313l-2.781,0l0,3.112c0,6.047 4.912,10.957 10.956,10.957c2.2,0 4.241,-0.663 5.959,-1.775l-6.378,9.662l-0.037,0l-0.016,0.081l-0.075,0.116l0.038,0.047l-0.779,4.756l20.563,4.119c-0.259,1.065 1.712,2.369 3.037,2.709c0.929,0.253 2.382,0.213 3.244,-0.212l0.569,8.015l-0.016,-0.222c0,2.347 1.913,4.257 4.266,4.257c2.322,0 4.231,-1.888 4.253,-4.216l0.009,-0.041l0,0.016l0.382,-5.587l11.706,3.778l10.109,-24.825l-0.037,-1.441c1.234,0.481 2.559,0.763 3.944,0.763c6.043,0 10.962,-4.91 10.962,-10.957l0,-3.112l-2.778,0Z" style="fill:#697d8b;fill-rule:nonzero;"/><path d="M1512.7,186.414c2.603,0 4.622,0.175 6.912,0.762c0.054,0 2.894,-0.506 5.61,-0.506c3.069,0 6.206,3.106 6.206,3.106l-0.291,1.644c0,0 -1.453,1.812 -5.756,1.812c-2.525,0 -4.656,-1.656 -6.384,-2.212c-1.822,-0.588 -4.144,-0.894 -6.319,-0.894c-3.678,0 -8.512,3.303 -8.512,9.503c0,5.375 3.115,8.063 6.287,10.435c3.647,2.725 6.169,3.847 7.194,4.709l-0.472,0.131c-0.919,0.26 -1.703,0.822 -2.275,1.575c-6.638,-2.484 -14.356,-6.968 -14.356,-16.85c0,-8.556 6.6,-13.215 12.156,-13.215m26.006,9.797l0,3.45c0,4.678 -3.625,7.278 -6.815,9.568c-1.3,0.935 -4.035,2.741 -4.035,2.741l-6.728,1.837c-1.106,-1.715 -3.753,-3.071 -5.847,-4.578c-3.197,-2.29 -6.812,-4.89 -6.812,-9.568l0,-3.45l30.237,0Zm-9.35,28.731l-10.225,2.847c-0.919,0.259 -1.878,-0.275 -2.122,-1.197c-0.259,-0.916 0.282,-1.872 1.188,-2.122l10.231,-2.859c0.922,-0.257 1.881,0.281 2.125,1.203c0.266,0.915 -0.275,1.868 -1.197,2.128m-11.472,-7.541l10.225,-2.856c0.913,-0.256 1.872,0.278 2.122,1.2c0.253,0.919 -0.281,1.869 -1.194,2.125l-10.231,2.853c-0.906,0.253 -1.865,-0.281 -2.131,-1.197c-0.244,-0.922 0.287,-1.875 1.209,-2.125m14.585,18.435l0,0.428l-17.775,0l0,-0.428c0,-1.807 4.34,-3.988 6.153,-5.841l4.703,-1.306c0.137,2.047 6.919,4.897 6.919,7.147m0.009,-63.513l16.619,0l0,-19.147l9.462,0l0,19.147l16.594,0l0,9.456l-16.594,0l0,54.503l-9.462,0l0,-54.503l-16.619,0l0,-9.456Zm-35.384,27.306c0,11.975 9.218,17.422 17.031,20.235c0,0.997 1.019,2.259 1.931,2.831c-0.462,0.353 -0.85,0.794 -1.15,1.319c-0.553,0.997 -0.706,2.159 -0.403,3.275c0.284,0.959 0.869,1.772 1.675,2.334c-2,1.356 -4.931,3.403 -4.931,6.694l0,2.475l24.687,0l0,-2.475c0,-3.86 -4.059,-5.822 -5.862,-7.375c-0.344,-0.288 -0.791,-0.678 -1.081,-0.96l0,-0.256c0,0 4.218,-1.031 4.218,-4.456c0,-1.709 -1.112,-3.063 -2.018,-3.634c0.456,-0.35 0.843,-0.791 1.143,-1.31c0.563,-1.006 0.7,-2.169 0.403,-3.278c-0.19,-0.65 -0.525,-1.225 -0.959,-1.716c0.769,-0.44 1.553,-0.887 2.122,-1.303c3.481,-2.497 8.253,-5.918 8.253,-12.368l0,-6.897l-7.75,0l0.388,-2.175c0.831,-0.4 2.003,-0.882 2.84,-0.882c1.075,0 2.178,0.916 3.297,0.916c1.019,0 1.438,-0.594 1.431,-0.887c0,-0.429 -0.615,-0.379 -1.303,-0.379c-0.928,0 -1.994,-1.365 -3.547,-1.365c-0.625,0 -1.675,0.244 -2.503,0.469c-0.556,-0.532 -2.756,-2.6 -4.059,-3.41l14.875,0l0,53.741l16.003,0l0,-53.741l16.609,0l0,-16.006l-16.609,0l0,-19.144l-16.003,0l0,19.144l-16.625,0l0,15.156c-1.4,-0.559 -3.006,-0.981 -3.975,-0.981c-2.466,0 -5.075,0.491 -5.075,0.491c0,0 -4.053,-0.744 -7.447,-0.744c-7.497,0 -15.606,6.303 -15.606,16.662" style="fill:#697d8b;fill-rule:nonzero;"/><path d="M1653,203.759c0,-3.312 1.721,-5.297 4.606,-5.297c1.394,0 2.894,0.803 2.894,2.547c0,1.716 -1.229,1.975 -1.972,1.975c-0.944,0 -1.722,0.769 -1.722,1.722c0,0.953 0.778,1.728 1.722,1.728c3.187,0 5.425,-2.228 5.425,-5.425c0,-3.419 -2.725,-6 -6.347,-6c-3.45,0 -6.069,1.828 -7.284,4.775l-3.322,-8.453l9.515,0c6.669,0 10.813,3.891 10.813,10.153c0,4.547 -3.741,8.244 -8.322,8.244c-3.478,0 -6.006,-2.506 -6.006,-5.969m8.19,32.703l-0.837,0.45l-31.66,-55.309c0.235,0.006 0.447,0.065 0.685,0.065c3.493,0 6.609,-1.546 8.778,-3.959c7.103,18.091 23.072,58.747 23.034,58.753m-9.797,-4.628l-5.831,0l0,-14.472l5.831,10.21l0,4.262Zm-9.537,0l-5.841,0l0,-21.634c0,-1.028 -0.837,-1.853 -1.856,-1.853c-1.028,0 -1.85,0.825 -1.85,1.853l0,21.634l-5.841,0l0,-21.634c0,-1.028 -0.837,-1.853 -1.862,-1.853c-1.022,0 -1.86,0.825 -1.86,1.853l0,21.634l-5.837,0l0,-20.872l3.378,-5.906l18.234,0l3.335,5.828l0,20.95Zm-28.647,0l-5.838,0l0,-4.191l5.838,-10.203l0,14.394Zm14.944,-40.503l2.503,0l5.884,10.275l-14.272,0l5.885,-10.275Zm-29.775,45.581l-0.85,-0.45c-0.025,-0.006 15.962,-40.706 23.065,-58.781c1.088,1.219 2.419,2.222 3.913,2.912l3.059,5.332l-29.187,50.987Zm1.387,-27.184c-4.59,0 -8.312,-3.697 -8.312,-8.244c0,-6.262 4.131,-10.153 10.809,-10.153l9.531,0l-3.334,8.497c-1.203,-2.975 -3.831,-4.819 -7.3,-4.819c-3.616,0 -6.344,2.581 -6.344,6c0,3.197 2.241,5.425 5.422,5.425c0.95,0 1.728,-0.775 1.728,-1.728c0,-0.953 -0.778,-1.722 -1.728,-1.722c-0.747,0 -1.972,-0.259 -1.972,-1.975c0,-1.744 1.506,-2.547 2.894,-2.547c2.875,0 4.603,1.985 4.603,5.297c0,3.463 -2.519,5.969 -5.997,5.969m29.613,-48.288c4.634,0 8.397,3.757 8.397,8.391c0,4.631 -3.763,8.387 -8.397,8.387c-4.628,0 -8.375,-3.756 -8.375,-8.387c0,-4.634 3.747,-8.391 8.375,-8.391m41.406,40.044c0,-8.134 -5.741,-13.606 -14.269,-13.606l-10.878,0l-5.312,-13.544c0.578,-1.394 0.906,-2.909 0.906,-4.503c0,-6.528 -5.322,-11.844 -11.853,-11.844c-6.516,0 -11.832,5.316 -11.832,11.844c0,1.612 0.322,3.147 0.907,4.55l-5.297,13.497l-10.894,0c-8.541,0 -14.281,5.472 -14.281,13.606c0,6.45 5.281,11.697 11.784,11.697c1.341,0 2.597,-0.253 3.738,-0.713l-4.835,12.304l-4.172,10.621c-1.05,2.722 0.747,3.472 0.747,3.472l2.422,1.266c1.491,0.787 2.716,-0.278 3.485,-1.631l2.762,-4.835l0,1.225l50.953,0l0,-1.275l2.785,4.885c0.784,1.353 2.003,2.418 3.496,1.631l2.413,-1.266c0,0 1.803,-0.75 0.747,-3.472l-4.172,-10.621l-4.828,-12.291c1.128,0.447 2.369,0.7 3.7,0.7c6.494,0 11.778,-5.247 11.778,-11.697" style="fill:#697d8b;fill-rule:nonzero;"/><path d="M1525.81,190.266c0.478,0 0.868,-0.397 0.868,-0.872c0,-0.484 -0.39,-0.878 -0.868,-0.878c-0.488,0 -0.885,0.394 -0.885,0.878c0,0.475 0.397,0.872 0.885,0.872" style="fill:#697d8b;fill-rule:nonzero;"/><path d="M1628.26,83.77c2.55,-1.997 4.272,-3.941 5.397,-5.222l0.428,-0.153l0.759,-0.144l0.063,0.3c0.096,0.522 0.19,1.06 0.25,1.481l0.031,0.175l-0.138,0.107c-2.353,1.909 -4.94,4.297 -5.853,8.468l-0.19,0.913l-0.382,-0.853l-0.122,-0.266c-0.037,-0.209 -0.075,-1.465 -0.075,-1.465c0.007,-0.191 0.007,-0.366 0.007,-0.535c0,-0.831 -0.1,-1.672 -0.291,-2.497l-0.037,-0.19l0.153,-0.119Zm-2.11,4.509c0,1.178 1.128,2.966 1.685,3.4c1.034,0.822 3.065,1.41 3.447,1.535c0.009,0 0.021,0.006 0.031,0.006c-0.063,-0.534 -0.144,-1.066 -0.144,-1.616c0,-6.247 6.019,-10.087 6.019,-10.087c0,0 0.29,-0.66 0.365,-1.06l-0.721,-4.118c-0.1,-0.582 0.006,-0.822 -0.785,-0.657l-3.515,0.704c-3.563,4.15 -6.563,6.34 -7.004,6.703c0.822,2.056 0.622,3.784 0.622,5.19" style="fill:#697d8b;fill-rule:nonzero;"/><path d="M1639.08,73.325c0.419,1.157 0.388,6.232 0.388,6.232c0.509,-0.525 2.093,-2.06 2.093,-3.682c0,-2.6 -0.79,-5.715 -0.79,-5.715c-0.191,-0.288 -2.332,-2.963 -3.397,-2.963c-0.472,0 -1.125,0.688 -1.528,1.856c-0.382,1.038 -1.738,2.816 -1.913,3.188l0.01,0.353c1.568,-0.006 4.84,-0.091 5.137,0.731" style="fill:#697d8b;fill-rule:nonzero;"/><path d="M1504.24,101.279l2.779,3.406c1.478,-1.187 3.043,-2.275 4.696,-3.247c-0.043,-0.206 -0.084,-0.425 -0.084,-0.665c0,-0.569 0.094,-1.106 0.275,-1.594c0.425,-1.166 1.263,-2.1 2.406,-2.628c0.6,-0.284 1.257,-0.425 1.919,-0.425c1.363,0 2.634,0.597 3.516,1.622c1.637,-0.572 3.328,-1.028 5.031,-1.363l-0.844,-4.306c-3.409,0.647 -7.072,1.769 -10.428,3.338c-3.359,1.565 -6.572,3.659 -9.266,5.862" style="fill:#697d8b;fill-rule:nonzero;"/><path d="M1497.62,92.79l2.682,3.525c2.106,-1.712 4.421,-3.278 6.881,-4.672c-0.031,-0.165 -0.069,-0.35 -0.069,-0.546c0,-1.8 1.05,-3.46 2.688,-4.222c0.615,-0.285 1.246,-0.425 1.925,-0.425c1.303,0 2.543,0.562 3.425,1.522c2.481,-0.904 5.009,-1.604 7.543,-2.094c-0.122,-0.522 -0.965,-4.313 -0.965,-4.313c-4.21,0.819 -8.694,2.194 -12.775,4.094c-4.057,1.891 -7.985,4.419 -11.335,7.131" style="fill:#697d8b;fill-rule:nonzero;"/><path d="M1502.65,81.847c-0.032,-0.137 -0.06,-0.287 -0.06,-0.45c0,-1.787 1.057,-3.431 2.678,-4.193c0.625,-0.291 1.279,-0.438 1.95,-0.438c1.269,0 2.46,0.519 3.335,1.435c3.181,-1.225 6.415,-2.172 9.665,-2.825c-0.456,-1.804 -0.743,-2.835 -0.918,-3.41c-0.191,-0.031 -0.466,-0.056 -0.853,-0.056c-1.113,0 -2.604,0.225 -4.4,0.669l-0.694,0.178c-1.013,0.284 -2.725,0.753 -4.522,0.753c-2.328,0 -4.194,-0.781 -5.525,-2.334c-0.663,-0.75 -0.894,-0.807 -0.938,-0.807c-0.09,0 -0.281,0.082 -0.471,0.169c-0.482,0.228 -0.482,0.228 -0.482,0.609c0,0.225 0.032,0.507 0.085,0.857c0.053,0.365 0.09,0.718 0.09,1.068c0,3.991 -3.615,6.482 -5.359,7.675l-0.569,0.404c-2.634,1.925 -3.54,3.118 -3.837,3.628c0.318,0.509 0.937,1.393 2.025,2.9c2.709,-2.166 5.662,-4.122 8.8,-5.832" style="fill:#697d8b;fill-rule:nonzero;"/><path d="M1604.75,73.238c1.165,1.646 2.321,3.131 3.35,4.362c-0.116,0.106 -2.332,1.747 -4.06,5.988c-0.875,-0.238 -1.019,-0.279 -1.872,-0.516c0.107,-0.803 0.16,-1.609 0.16,-2.403c0,-2.135 -0.219,-4.231 -0.557,-6.297c0.985,-0.344 1.95,-0.722 2.979,-1.134m-4.819,11.284c1.919,0.528 5.403,1.478 5.403,1.478c1.134,-4.559 4.203,-7.225 5.528,-8.187c-1.006,-1.138 -3.434,-3.96 -5.412,-6.997c-2.344,1.018 -4.804,1.875 -5.854,2.231c0.26,1.128 0.76,3.862 0.76,7.622c0,1.75 -0.25,3.112 -0.425,3.853" style="fill:#697d8b;fill-rule:nonzero;"/><path d="M1563.06,74.372c-0.335,2.065 -0.557,4.165 -0.557,6.297c0,0.793 0.063,1.6 0.175,2.403c-0.859,0.237 -1.012,0.278 -1.887,0.515c-1.728,-4.24 -3.934,-5.881 -4.041,-5.987c1.019,-1.231 2.175,-2.713 3.341,-4.363c1.019,0.413 2.003,0.794 2.969,1.135m-9.082,3.44c1.325,0.963 4.391,3.629 5.525,8.188c1.082,-0.294 3.488,-0.95 5.407,-1.475c-0.182,-0.744 -0.425,-2.106 -0.425,-3.856c0,-3.76 0.509,-6.494 0.759,-7.622c-1.059,-0.356 -3.5,-1.213 -5.862,-2.231c-1.979,3.037 -4.391,5.859 -5.404,6.996" style="fill:#697d8b;fill-rule:nonzero;"/><path d="M1561.89,91.337c0.981,-0.263 2.2,-0.594 3.25,-0.885c0.778,1.403 1.728,2.769 2.847,4.085c-1.866,0.762 -4.041,1.512 -7.269,2.296c0.678,-1.709 1.06,-3.556 1.172,-5.496m-4.978,8.378c7.428,-1.347 12.522,-3.61 14.35,-4.51c-1.134,-1.112 -3.503,-3.675 -5.109,-7.112c-0.935,0.315 -2.732,0.794 -6.166,1.706c0.075,4.85 -1.787,8.2 -3.075,9.916" style="fill:#697d8b;fill-rule:nonzero;"/><path d="M1582.41,93.658c0.456,0.569 0.937,1.119 1.469,1.657c-0.563,0.337 -1.057,0.628 -1.469,0.853c-0.413,-0.225 -0.906,-0.51 -1.463,-0.847c0.525,-0.538 1.022,-1.091 1.463,-1.663m-4.659,1.925c0.968,0.666 2.84,1.9 4.659,2.822c1.903,-0.909 3.737,-2.15 4.681,-2.822c-1.065,-0.856 -3.175,-2.746 -4.681,-5.456c-1.538,2.75 -3.594,4.61 -4.659,5.456" style="fill:#697d8b;fill-rule:nonzero;"/><path d="M1557.78,55.885c0.587,0 1.081,1.422 1.081,1.906c0,0.95 -0.306,2.547 -1.509,5.025c-1.188,-1.209 -1.391,-2.309 -1.391,-3.193c0,-1.916 1.088,-3.738 1.819,-3.738m0.222,9.975c0.775,-1.328 2.822,-5.091 2.822,-8.069c0,-1.375 -1.157,-3.89 -3.044,-3.89c-1.966,0 -3.806,2.781 -3.806,5.722c0,3.415 2.862,5.521 4.028,6.237" style="fill:#697d8b;fill-rule:nonzero;"/><path d="M1599.69,90.453c1.06,0.288 2.285,0.622 3.25,0.885c0.122,1.94 0.503,3.787 1.172,5.494c-3.219,-0.782 -5.387,-1.532 -7.262,-2.294c1.112,-1.316 2.065,-2.685 2.84,-4.085m8.228,9.26c-1.284,-1.716 -3.143,-5.066 -3.075,-9.913c-3.425,-0.915 -5.228,-1.393 -6.15,-1.703c-1.612,3.438 -3.981,5.994 -5.122,7.106c1.825,0.904 6.91,3.163 14.347,4.51" style="fill:#697d8b;fill-rule:nonzero;"/><path d="M1570.5,76.976c2.254,0.737 4.529,1.665 4.529,1.665c0,0 -2.375,-0.262 -3.775,2.041c-0.25,0.072 -0.557,0.162 -0.944,0.272c-0.006,-0.097 -0.031,-0.194 -0.031,-0.288c0,-1.259 0.093,-2.484 0.221,-3.69m8.032,6.565c0,0 0.356,3.288 -3.7,6.856c-0.678,-0.706 -1.294,-1.415 -1.819,-2.146c4.978,-1.313 5.519,-4.71 5.519,-4.71m-6.113,-1.134c0.266,-0.094 0.463,-0.178 0.594,-0.244c0,-0.059 -0.016,-0.131 -0.016,-0.2c0,-0.856 0.588,-1.612 1.422,-1.837c0.163,-0.041 0.322,-0.066 0.497,-0.066c0.844,0 1.606,0.578 1.834,1.419c0.479,1.8 -0.806,3.697 -3.09,4.522l-3.753,1.087c1.065,2.094 2.672,4.122 4.772,6.038c3.693,-2.697 5.565,-5.863 5.565,-9.413c0,-5.025 -5.359,-7.344 -11.365,-9.437c-0.397,2.065 -0.585,4.212 -0.585,6.39c0,0.947 0.097,1.891 0.31,2.828l3.815,-1.087Z" style="fill:#697d8b;fill-rule:nonzero;"/><path d="M1607.06,55.885c0.731,0 1.818,1.822 1.818,3.738c0,0.884 -0.206,1.984 -1.393,3.193c-1.204,-2.478 -1.5,-4.075 -1.5,-5.025c0,-0.484 0.487,-1.906 1.075,-1.906m3.806,3.738c0,-2.941 -1.85,-5.722 -3.806,-5.722c-1.897,0 -3.054,2.515 -3.054,3.89c0,2.972 2.057,6.741 2.832,8.069c1.165,-0.716 4.028,-2.822 4.028,-6.237" style="fill:#697d8b;fill-rule:nonzero;"/><path d="M1586.26,83.542c0,0 0.556,3.393 5.534,4.709c-0.525,0.731 -1.14,1.441 -1.818,2.147c-4.066,-3.569 -3.716,-6.856 -3.716,-6.856m8.053,-6.566c0.122,1.206 0.206,2.431 0.206,3.691c0,0.093 -0.015,0.19 -0.031,0.287c-0.378,-0.112 -0.675,-0.2 -0.934,-0.272c-1.41,-2.303 -3.785,-2.04 -3.785,-2.04c0,0 2.285,-0.929 4.544,-1.666m-4.172,16.15c2.11,-1.913 3.71,-3.944 4.775,-6.038l-3.79,-1.1c-2.247,-0.815 -3.535,-2.709 -3.053,-4.521c0.234,-0.829 0.987,-1.41 1.834,-1.41c0.175,0 0.334,0.028 0.494,0.069c0.837,0.225 1.425,0.978 1.425,1.837c0,0.066 -0.016,0.141 -0.016,0.2c0.128,0.066 0.313,0.15 0.572,0.232l3.834,1.1c0.222,-0.935 0.322,-1.885 0.322,-2.828c0,-2.172 -0.2,-4.319 -0.587,-6.391c-6.013,2.094 -11.372,4.412 -11.372,9.437c0,3.55 1.872,6.719 5.562,9.413" style="fill:#697d8b;fill-rule:nonzero;"/><path d="M1655.87,97.849l0.753,-6.044l6.044,-1.04l-5.563,-2.669l0.791,-6.041l-4.247,4.457l-5.519,-2.557l0.028,0.035l2.872,5.25l-4.265,4.434l6.122,-1.166l2.984,5.341Z" style="fill:#697d8b;fill-rule:nonzero;"/><path d="M1646.4,81.467c2.018,-2.931 1.043,-7.565 1.043,-7.565l0.113,-0.066c1.462,1.144 2.978,1.75 3.616,1.975c1.362,0.378 2.84,0.784 4.425,0.784c2.153,0 3.881,-0.734 5.137,-2.193c0.328,-0.372 0.472,-0.497 0.541,-0.532c0.137,0.341 0.106,0.557 0.062,0.835c-0.056,0.325 -0.069,0.631 -0.069,0.922c0,4.121 4.21,6.965 5.838,7.721c0.494,0.232 1.728,0.772 3.197,1.107l0.022,0.178c0,0 -2.913,1.094 -4.794,4.912c-2.178,4.428 -0.45,9.55 -1.553,11.578c-1.388,2.554 -3.61,3.072 -5.019,3.072c-0.494,0 -0.997,-0.059 -1.522,-0.165l-3.065,-0.8c-1.769,-0.51 -4.044,-1.166 -6.1,-1.166l-0.107,0.006c-1.209,-1.487 -2.906,-2.709 -4.84,-4.031c-0.175,-0.125 -2.582,-1.875 -2.71,-1.969c-1.456,-1.153 -3.456,-3.903 -1.806,-6.743c1.644,-2.841 4.819,-3.85 7.591,-7.86m-9.669,6.894c-0.425,0.894 -0.638,1.884 -0.678,3.25c0,2.481 1.15,4.7 3.2,6.319c0,0 2.74,1.99 2.778,2.009c1.919,1.313 3.594,2.516 4.606,3.909l0.419,0.582l1.216,-0.063c1.728,0 3.806,0.597 5.518,1.091l3.185,0.825c0.668,0.14 1.347,0.215 1.984,0.215c1.956,0 3.741,-0.662 5.178,-1.921c0.875,-0.772 1.506,-1.582 1.925,-2.479c0.594,-1.271 0.725,-2.578 0.725,-4.143l-0.031,-2.263c0,-1.081 0.047,-2.319 0.366,-3.847c0.053,-0.268 0.112,-0.547 0.19,-0.825l0.031,0.016l0.304,-0.775c0.89,-1.928 2.74,-3.044 4.384,-3.938l0.778,-0.643l-0.472,-3.185l-0.937,-0.165c-1.538,-0.263 -2.932,-0.885 -3.328,-1.072c-0.95,-0.441 -4.507,-2.688 -4.507,-5.631c0,-0.179 0.01,-0.36 0.047,-0.597c0.069,-0.41 0.097,-0.735 0.097,-0.988c0,-1.444 -0.934,-1.884 -1.453,-2.125c-0.303,-0.14 -0.669,-0.315 -1.141,-0.315c-0.906,0 -1.553,0.643 -2.125,1.3c-0.806,0.94 -1.918,1.393 -3.393,1.393c-1.282,0 -2.56,-0.35 -3.663,-0.653c-0.456,-0.159 -2.047,-0.775 -3.409,-2.003l-0.741,-0.647l-0.828,0.522c-0.106,0.069 -0.822,0.494 -1.278,0.766l-0.8,0.462l0.175,0.903c0.19,0.95 0.365,1.963 0.365,3.016c0,1.094 -0.19,2.034 -0.54,2.794l-0.413,0.762c-0.137,0.216 -0.281,0.416 -0.425,0.622c-1.128,1.538 -2.49,2.622 -3.731,3.603c-1.516,1.222 -2.816,2.278 -3.578,3.919" style="fill:#697d8b;fill-rule:nonzero;"/><path d="M1544.69,94.808c1.69,0 1.484,-1.872 2.14,-2.525c0.647,-0.647 2.497,-0.394 2.497,-2.15c0,-1.728 -1.881,-1.528 -2.497,-2.15c-0.625,-0.625 -0.328,-2.519 -2.14,-2.519c-1.097,0 -1.682,0.847 -1.682,2.119l0,5.106c0,1.228 0.569,2.119 1.682,2.119" style="fill:#697d8b;fill-rule:nonzero;"/><path d="M1488.55,112.895c-0.953,-0.787 -1.994,-0.912 -2.709,-0.056c-1.075,1.309 0.5,2.338 0.584,3.253c0.091,0.91 -1.284,2.175 0.069,3.294c1.331,1.103 2.375,-0.472 3.244,-0.556c0.89,-0.085 2.162,1.356 3.312,-0.035c0.7,-0.85 0.409,-1.837 -0.566,-2.653l-3.934,-3.247Z" style="fill:#697d8b;fill-rule:nonzero;"/><path d="M1583.26,383.237c-77,0.457 -140.035,-61.821 -140.482,-138.825c-0.19,-30.834 9.707,-59.409 26.56,-82.64c1.028,-0.388 1.993,-0.956 2.8,-1.697c1.081,-1 2.268,-2.741 2.65,-5.344c25.465,-30.787 63.84,-50.544 106.818,-50.803c43.554,-0.259 82.629,19.569 108.45,50.766c0.7,5.206 4.422,6.693 5.46,7.078c16.534,22.797 26.39,50.74 26.569,80.987c0.462,77.003 -61.822,140.022 -138.825,140.478m-105.594,-237.003c-2.094,2.169 -1.972,2.213 -3.922,4.51c-0.144,-0.213 -0.25,-0.444 -0.431,-0.631c-0.732,-0.735 -1.41,-1.11 -2.31,-1.11c-0.547,0 0.313,-0.415 1.16,-0.756c0.853,-0.334 5.503,-2.013 5.503,-2.013m1.865,-29.125c0,0.019 0,0.035 -0.015,0.05l0,-0.05l0.015,0Zm-19.353,35.397c0,-3.084 1.828,-5.787 5.428,-8.025c1.335,-0.831 2.21,-1.187 3.541,-1.737l5.422,-2.381l2.281,-1.182l-1.331,0.072c-8.572,0 -12.553,-2.144 -12.553,-6.74c0,-0.916 0.731,-1.904 1.909,-1.904c1.053,0 1.897,0.854 1.897,1.904c0,0.59 0.159,1.009 0.503,1.362c1.575,1.572 6.569,1.572 8.213,1.572c4.803,0 9.303,-2.075 12.372,-3.934c-2.985,-0.26 -6.016,-1.557 -8.572,-3.688c-3.282,-2.731 -5.207,-6.284 -5.566,-10.287c-0.344,-3.838 0.847,-7.879 3.075,-10.538c5.809,-6.912 13.528,-6.994 13.863,-6.994c1.043,0.007 1.887,0.863 1.887,1.903c0,1.047 -0.85,1.9 -1.903,1.91c-0.059,0 -6.25,0.062 -10.938,5.631c-1.203,1.444 -2.506,4.334 -2.193,7.747c0.275,2.969 1.728,5.634 4.218,7.7c0.791,0.666 3.685,2.831 7.285,2.831c3.006,0 5.794,-1.503 8.281,-4.472l0.497,-0.403c2.853,-3.106 6.653,-7.797 7.619,-9.072c0.968,-1.281 4.081,0.875 2.778,2.525c-2.975,3.744 -6.681,8.591 -12.391,14.019c-0.7,0.669 -0.7,0.669 -0.794,0.716c-3.706,3.493 -7.74,6.612 -11.843,9.168c-5.2,2.688 -6.557,3.385 -6.966,3.569l0.006,0.022l-5.603,2.466c-1.362,0.562 -1.947,0.806 -2.975,1.447c-2.597,1.606 -3.747,3.237 -3.631,5.15c0.1,1.553 1.3,2.809 2.237,2.809c1.804,0 2.072,-1.559 2.072,-2.488c0,-0.512 0.203,-0.997 0.569,-1.346c0.338,-0.35 0.816,-0.547 1.334,-0.547c1.05,0 1.904,0.847 1.904,1.893c0,4.341 -3.054,6.282 -6.075,6.282c-2.772,0 -5.857,-2.978 -5.857,-6.96m13.713,-53.25l0,-3.431l1.5,0l0,-3.194l-4.431,0l0,3.194l1.5,0l0,3.425l-5.847,0l0,-3.425l1.5,0l-0.01,-3.194l-1.49,0l0,-4.99l19.084,0c2.566,1.75 2.9,2.9 2.931,4.99l-10.384,0l0,3.194l1.494,0l0,3.425l-5.847,0.006Zm18.512,-0.759c-0.54,-0.275 -1.103,-0.466 -1.743,-0.469c-0.235,0 -3.982,0.088 -8.335,2.228l0,-5.037l7.603,0c0.322,0.428 1.425,1.881 2.475,3.278m3.282,15.109c1.293,1.081 2.031,2.503 2.031,3.903c0,3.866 -2.663,6.179 -5.235,6.179c-0.746,0 -1.996,-0.31 -2.393,-0.413c-0.372,0.203 -1.613,0.809 -2.769,0.809c-3.1,0 -5.709,-2.537 -5.709,-5.543c0,-0.713 0.281,-1.707 0.381,-2.053c-0.185,-0.372 -0.747,-1.557 -0.816,-2.313c-0.137,-1.528 0.335,-3.016 1.316,-4.184c0.984,-1.172 2.369,-1.888 3.89,-2.025c0.169,-0.01 0.329,-0.019 0.488,-0.019c1.341,0 2.65,0.475 3.678,1.344c0.138,0.118 0.266,0.259 0.388,0.4l5.581,-6.744c0,0 1.544,0.2 2.64,1.415c0.907,0.994 1.044,2.907 1.044,2.907l-4.972,6.022c0.175,0.1 0.328,0.203 0.457,0.315m3.075,-0.065c0.418,-0.504 1.44,-1.722 2.871,-3.429c1.025,1.207 1.454,1.741 2.122,2.494c-1.118,1.444 -2.375,3.022 -3.768,4.71l0,-0.041c-0.129,-1.531 -0.738,-2.991 -1.225,-3.734m-6.075,-36.416l0.671,-0.478c1.363,-0.934 3.404,-2.356 3.172,-3.831c-0.34,-2.113 -0.372,-5.11 3.244,-6.8c3.584,-1.666 5.869,0.284 7.263,1.896c0.381,0.457 1.012,0.635 1.712,0.635c2.216,0 5.619,-1.613 9.828,-1.613c2.603,0 4.447,0.769 5.025,2.413c3.394,9.794 6.997,32.081 7.013,32.128c0,0 -6.282,0.306 -12.753,3.328c-5.641,2.634 -10.772,7.644 -10.772,7.644c-0.038,-0.038 -14.775,-17.197 -20.119,-26.022c-1.463,-2.397 0.737,-5.669 5.716,-9.3m44.937,-22.6l3.822,3.209l-0.966,1.15l2.435,2.047l0.965,-1.15l2.635,2.21l-3.76,4.484l-2.625,-2.206l0.966,-1.15l-2.453,-2.047l-2.831,3.387l2.437,2.054l0.959,-1.15l2.625,2.206l-3.753,4.478l-2.634,-2.206l0.969,-1.144l-2.444,-2.047l-6.472,7.709c-0.059,-0.072 -0.075,-0.131 -0.166,-0.209c-1.537,-1.319 -2.209,-2.325 -2.065,-4.897l12.356,-14.728Zm10.847,9.034c0,0 1.403,3.819 4.753,5.922c-1.272,1.719 -2.444,3.194 -3.297,4.178c-1.447,-0.446 -2.894,-0.75 -4.256,-0.75c-2.072,0 -3.897,0.313 -5.556,0.747l8.356,-10.097Zm-9.584,35.603c-2.238,-0.018 -4.263,-0.074 -6.019,-0.143c-0.147,-0.994 -0.216,-1.669 -0.481,-3.194l4.484,0c0.275,0.941 0.906,2.234 2.003,3.322c0,0.003 0,0.012 0.013,0.015m-9.622,-18.29l-0.838,-3.603c2.294,-2.722 4.044,-4.816 4.897,-5.828c0.113,0.09 2.359,1.972 3.822,3.206c-4.394,1.872 -7.469,4.862 -7.881,6.225m0.381,6.662l0.069,-0.203l9.159,0.007c-0.031,-0.207 -0.053,-0.385 -0.053,-0.566c0,-3.147 2.556,-5.713 5.716,-5.713c3.678,0 5.031,3.057 5.306,3.788c0.731,0.262 3.731,1.575 3.731,5.284c0,3.71 -3,5.028 -3.731,5.294c-0.266,0.731 -1.616,3.788 -5.306,3.788c-3.532,0 -5.716,-2.966 -5.716,-5.713c0,-0.191 0.022,-0.381 0.053,-0.566l-7.537,0l-0.091,-0.147c-0.063,-0.112 -0.138,-0.221 -0.281,-0.359c-1.6,-1.503 -2.003,-3.012 -1.319,-4.894m-5.313,22.844c0,-0.184 -0.078,-0.903 -0.078,-1.175c0,-0.822 0.153,-2.106 0.875,-2.5c0.869,-0.178 4.119,-0.05 6.319,0.038c2.353,0.09 5.284,0.187 8.528,0.187c-6.084,1.894 -11.981,4.2 -17.684,6.853c1.247,-0.681 2.04,-1.99 2.04,-3.403m-2.459,3.6c-5.784,2.713 -11.366,5.803 -16.703,9.244c2.172,-2.559 3.975,-4.894 5.412,-6.759c1.341,-1.729 3.335,-4.304 4.044,-4.866c1.019,-0.384 2.588,0.997 2.922,1.378c1.075,1.216 2.825,1.588 4.325,1.003m-0.144,-3.778c0.082,0.559 -0.215,1.122 -0.725,1.366c-0.525,0.24 -1.14,0.112 -1.522,-0.322c-0.1,-0.1 -1.759,-1.938 -3.853,-2.269c1.728,-1.281 4.775,-2.737 6.897,-3.247c-1.156,1.85 -0.797,4.441 -0.797,4.472m36.053,-60.1c3.919,0 6.85,4.059 6.85,7.691c0,3.84 -2.284,8.178 -3.203,9.759c1.56,0.65 3.172,1.259 4.825,1.822c0.563,-1.669 1.788,-4.806 3.96,-8.019l0.425,-0.622l0.525,0.541c0.603,0.631 1.225,1.231 1.85,1.784l0.381,0.341l-0.266,0.444c-2.025,3.212 -2.962,5.697 -3.312,6.74c4.85,1.675 10.034,3.797 12.6,7.547c2.678,-3.959 7.703,-5.778 12.59,-7.531c-0.64,-1.922 -1.912,-4.522 -3.265,-6.681l-0.275,-0.438l0.381,-0.347c0.641,-0.55 1.256,-1.15 1.872,-1.778l0.519,-0.534l0.418,0.619c2.269,3.343 3.5,6.628 3.935,7.94c1.781,-0.581 3.815,-1.409 4.828,-1.831c-0.916,-1.594 -3.222,-5.988 -3.222,-9.756c0,-3.632 2.941,-7.691 6.869,-7.691c4.125,0 7.612,4.356 7.612,9.522c0,3.931 -1.85,6.925 -5.825,9.409c2.338,3.397 4.65,6.025 5.435,6.891c0.237,-0.091 3.8,-1.094 3.8,-1.094l-2.153,1.825c-2.81,2.113 -3.238,4.075 -3.238,4.075l-0.387,0c-1.385,0 -2.55,1.435 -2.55,3.138c0,0.097 0.075,0.384 0.137,0.575l0.084,0.231l-0.115,0.225c-0.791,1.647 -1.203,3.422 -1.188,5.272c0,0.7 0.16,6.912 5.513,9.575l0.287,0.137l0.213,1.478c0.297,0.285 1.272,1.104 1.272,1.104l0.709,1.462l0.775,0.731l-1.697,-0.147c-15.819,-1.328 -23.584,-5.587 -25.312,-6.65c-1.613,1.135 -6.453,4.447 -8.038,4.447c-1.697,0 -6.472,-3.334 -8.04,-4.456c-2.147,1.163 -13.991,7.094 -32.291,7.094c-2.994,0 -6.572,-0.066 -9.234,-0.141c-0.96,-0.028 -1.172,-3.697 0.09,-3.665c1.256,0.031 7.422,0.003 10.522,0.003l0.897,-0.003c8.747,0 11.869,-5.663 11.869,-10.966c0,-3.25 -1.103,-6.078 -3.197,-8.175c-2.428,-2.438 -5.475,-3.3 -7.347,-3.3c-7.353,0 -11.306,4.7 -11.35,4.75c-0.35,0.434 -0.891,0.681 -1.453,0.681c-0.45,0 -0.891,-0.159 -1.228,-0.45c-0.382,-0.319 -0.616,-0.775 -0.663,-1.281c-0.053,-0.513 0.11,-1.003 0.428,-1.391c0.207,-0.24 5.122,-6.115 14.266,-6.115c2.178,0 4.097,0.681 4.919,1.018c2.359,-2.603 4.528,-5.634 5.372,-6.856c-1.613,-0.956 -5.791,-3.962 -5.791,-9.431c0,-5.166 3.494,-9.522 7.612,-9.522m10.429,10.694c-1.235,1.937 -2.316,3.94 -3.138,6.05c-0.303,-0.113 -0.6,-0.222 -0.903,-0.344c1.416,-2.878 2.206,-5.481 2.381,-7.791c0.541,0.719 1.088,1.413 1.66,2.085m22.656,5.456c0.6,1.022 1.156,2.066 1.59,3.144c-3.684,1.362 -7.406,3.087 -10.04,5.725c-2.635,-2.638 -6.356,-4.366 -10.028,-5.728c0.443,-1.097 1.006,-2.157 1.609,-3.203c2.753,1.937 5.653,3.134 8.478,3.134c2.794,0 5.666,-1.172 8.391,-3.072m9.812,0.25c-0.312,0.125 -0.603,0.238 -0.922,0.35c-0.815,-2.081 -1.865,-4.053 -3.084,-5.969c0.566,-0.656 1.113,-1.334 1.638,-2.037c0.196,2.275 0.975,4.837 2.368,7.656m-18.203,-0.828c-5.609,0 -13.056,-7.419 -16.969,-15.781l4.957,0c3.153,6.015 8.168,11.231 12.012,11.231c3.844,0 8.869,-5.216 12.022,-11.231l4.963,0c-3.922,8.362 -11.36,15.781 -16.985,15.781m-24.678,-22.134l48.728,0l0,3.765l-48.728,0l0,-3.765Zm17.278,-16.004c2.172,0 3.928,0.472 5.391,1.163l0,-14.109l-6.913,0l0,-4.36l6.913,0l0,-7.003l4.734,0l0,7.003l6.906,0l0,4.36l-6.906,0l0,13.834c1.325,-0.531 2.856,-0.888 4.681,-0.888c7.15,0 12.144,5.444 12.144,13.232c0,0.056 -0.015,0.122 -0.015,0.187l-4.529,0c-0.175,-4.362 -2.781,-8.869 -8.328,-8.869c-3.265,0 -5.437,2.154 -6.684,3.932c-1.144,-1.797 -3.222,-3.932 -6.669,-3.932c-5.937,0 -8.178,4.494 -8.328,8.869l-4.516,0c0,-0.065 -0.006,-0.131 -0.006,-0.187c0,-7.916 4.872,-13.232 12.125,-13.232m45.235,37.563c0.646,1.503 1.743,2.812 2.818,3.812c0.013,0.057 0.013,0.063 0.028,0.119c-0.425,0.591 -2.7,2.685 -4.215,3.913c-1.547,0.047 -3.053,0.431 -4.006,0.722c-0.844,-0.985 -2.041,-2.454 -3.304,-4.182c4.166,-3.293 4.941,-6.437 4.941,-6.437c0,0 1.516,1.656 3.738,2.053m-7.035,31.669c-2.306,-2.197 -2.619,-5.35 -2.619,-6.6l0,-0.057c0,-0.971 0.16,-1.884 0.391,-2.75c0.659,0.444 1.431,0.7 2.266,0.741c0.253,0.259 0.931,0.925 0.953,0.941c-0.572,1.247 -1.841,2.822 -1.841,2.822l-0.475,2.165c0,0 0.985,1.588 1.325,2.738m20.113,9.975c1.806,-0.069 4.24,-0.16 5.565,-0.1c0.519,0.372 1.007,0.74 1.438,1.097c0.147,0.484 0.115,1.465 0.125,2.653c0.006,1.19 0.744,2.618 1.931,3.315c-5.656,-2.628 -11.516,-4.9 -17.547,-6.778c3.222,0 6.138,-0.097 8.488,-0.187m-11.875,-7.632c0,0 -0.488,-0.609 -0.775,-0.971c-0.122,-1.247 -0.269,-2.4 -0.457,-3.491c0.066,-0.069 0.091,-0.513 0.082,-1.147c0.725,-0.897 1.575,-1.934 1.575,-1.934l0.084,1.134c0.184,0.219 0.975,1.178 0.975,1.178c0,0 0.413,0.081 0.747,0.147c0.112,0.044 0.494,0.203 0.759,0.409l2.788,2.516c0,0 1.622,0.278 2.322,0.384c0.015,0.01 0.047,0.05 0.115,0.116c0.244,0.569 0.632,1.078 0.95,1.619c-2.656,0.081 -5.809,0.137 -9.165,0.04m1.287,5.01c0.166,-0.381 0.25,-0.769 0.25,-1.131c0,-0.338 -0.059,-0.679 -0.181,-0.991l-0.031,-0.1l-0.007,-0.122l0,-0.622c0,0 7.954,-0.106 10.11,-0.09c2.153,0.021 2.837,3.618 0.775,3.653l-11.291,0.243l0.375,-0.84Zm39.394,9.887c0.884,0.175 1.659,0.175 2.422,0.085c0.19,0.35 0.275,0.487 0.409,0.712c0,0.966 0.063,2.325 1.075,3.291l2.163,0.803c0.043,0 -0.466,0.659 -0.938,1.287c-1.919,-2.175 -3.647,-4.278 -5.131,-6.178m-2.528,9.194c-5.297,-3.412 -10.81,-6.494 -16.535,-9.191c1.463,0.507 3.275,-0.303 4.172,-1.037c0.891,-0.734 1.288,-1.069 1.707,-1.253c0.562,0.125 1.165,0.265 1.75,0.431c0.906,0.978 2.406,2.897 3.487,4.313c1.491,1.918 3.313,4.24 5.419,6.737m-4.01,-8.181c-1.696,-2.191 2.35,-3.169 3.013,-2.328c2.034,2.634 4.437,5.709 7.087,8.709l0.875,1.013l-1.337,0c-0.953,0.031 -1.934,0.55 -2.216,0.709l-0.434,0.247l-0.472,-0.291c-2.506,-2.897 -4.772,-5.803 -6.516,-8.059m-36.54,-56.028l1.987,0.359l-0.528,-1.556l1.585,0.797l0.175,-1.957l1.218,1.225l0.472,-1.784l1.194,2.863c0.825,0.137 1.447,0.521 2.194,1.018c0.412,0.016 2.056,0.116 2.306,0.988c0.428,1.487 -2.756,2.062 -2.741,2.419c0,0.303 0.847,0.831 1.569,1.359c1.303,0.959 3.525,3.197 3.806,3.831c0.35,-0.425 1.363,-1.653 1.682,-1.937c0.565,-0.488 1.95,-2.263 2.475,-2.472c1.103,-0.428 2.39,1.25 3.228,1.775c1.431,0.897 2.465,2.328 2.693,2.587l5.619,-3.372c0,0 2.141,4.707 7.4,4.707c0.828,0 1.591,-0.182 1.919,-0.563c2.109,-2.434 4.391,-3.028 7.025,-1.809c2.597,1.215 3.609,3.356 3.106,6.534c-0.219,1.385 2.269,3.344 3.313,3.841c1.384,0.644 3.218,1.219 4.203,1.05l1.728,-0.291l1.347,8.525c-6.722,3.635 -7.05,3.603 -7.05,10.585c0,2.253 0.075,4.696 -1.05,7.106c-0.588,1.256 -1.494,2.493 -2.856,3.697c-0.122,0.112 -0.282,0.178 -0.41,0.284c-0.031,0.278 -0.084,0.544 -0.147,0.769l1.775,3.181c0.45,-0.4 3.585,-2.725 3.966,-3.534c0.206,-0.438 -0.1,-4.478 -0.1,-4.478c0,0 0.869,-1.56 0.869,-6.888c0,-4.85 0.306,-5.769 2.025,-6.941c0.906,-0.609 2.681,-1.921 4.05,-2.521c-0.382,1.875 -3.038,2.79 -3.038,3.715c0,0.913 0.494,1.409 0.806,1.719l0.497,-0.434c0.6,-0.532 1.407,-0.507 1.697,-0.476c0.853,-0.606 1.788,-1.528 2.906,-1.571c1.085,-0.047 2.4,0.487 2.879,0.7l0.471,-0.635c-0.25,-0.375 -0.859,-1.337 -0.89,-2.025c-0.044,-0.793 -0.691,-1.518 -2.122,-1.037l0.441,-0.95c0.45,-0.969 1.681,-0.888 1.956,-0.86c0.647,-0.165 1.112,-0.325 1.79,-0.087l1.629,-1.953l0.287,1.653l1.113,-0.063l-0.191,1.363l1.241,0.191l-0.288,1.056l1.203,0.672l-2.284,0.759c0.031,1.3 -0.206,2.681 -1.966,4.103c0.091,0.185 0.191,0.478 0.206,0.847c0.107,2.034 -1.787,2.756 -2.396,2.934l-0.26,2.079c0.328,0.203 1.172,0.678 1.644,0.653c4.512,-0.197 4.103,-7.535 7.003,-7.478c2.794,0.053 3.016,2.678 3.206,4.681c0.313,3.522 1.453,6 -0.093,12.522c-0.957,4.043 -2.016,6.631 -4.025,10.265c0.265,-0.968 0.487,-1.959 0.571,-2.99l0.075,-1.6c0,-4.053 -1.331,-7.863 -3.662,-10.441c-1.3,-1.459 -2.594,-1.772 -3.456,-1.775c-1.019,-0.009 -2.016,0.438 -2.732,1.209c-0.603,0.666 -0.943,1.56 -0.943,2.516c0,1.116 0.456,2.231 1.284,3.153c0.838,0.928 1.738,3.013 1.738,5.397l-0.047,0.847c-0.207,2.287 -1.31,4.353 -3.175,6.022c0.009,-0.172 0.037,-0.353 0.053,-0.463c0.253,-1.128 0.762,-2.437 1.159,-3.506c0.044,-0.184 0.281,-1.466 0.281,-2.247c0.007,-0.622 0.585,-2.29 0.929,-3.231c-0.913,0.503 -2.832,2.769 -4.163,2.822c-0.397,0.019 -0.741,0.019 -0.959,0.019c-0.025,0.678 -0.069,2.521 -0.041,2.978c0.025,0.556 -1.109,5.818 -1.119,5.878c-0.037,0.012 -0.084,0.019 -0.112,0.031l-1.791,0.347c-0.015,0.003 -0.022,0.003 -0.037,0.006c-0.007,-0.006 -1.278,-1.069 -1.453,-1.181l0.943,-5.047l-1.515,3.378c0,0 -0.463,-0.8 -0.938,-1.494c-0.281,-0.406 -0.69,-0.409 -0.881,-0.387l-2.681,4.734c0.35,0.419 1.372,1.753 1.659,3.019l-0.584,0.234c-0.132,-0.237 -1.013,-1.675 -2.057,-1.631c-0.625,0.028 -1.781,1.266 -1.925,1.528l-0.55,-0.297c0.063,-0.187 0.285,-0.94 0.772,-1.684c-0.253,-0.078 -0.662,-0.175 -1.15,-0.156c-0.715,0.04 -1.943,0.665 -2.225,0.809l-0.19,-0.553c0,0 1.159,-1.106 2.347,-1.288c-0.154,-0.2 -0.382,-0.424 -0.619,-0.418c-0.441,0.025 -1.316,0.062 -1.316,0.062l-0.015,-0.487c0,0 0.778,-0.441 1.287,-0.46c1.263,-0.059 1.85,0.757 3.15,0.744l2.591,-5.05c-0.085,-2.044 0.928,-2.212 0.85,-3.703c-0.028,-0.572 0.122,-1.072 -0.075,-1.066c-0.335,0.01 -3.016,1 -3.7,1.032c-0.694,0.034 -0.472,-1.757 -0.547,-2.253l-1.706,-2.91c-1.31,0.453 -2.163,0.572 -3.319,0.309l-0.26,-0.403c0.016,0 0.038,-0.059 0.047,-0.081c-1.79,0.441 -3.722,0.472 -5.725,0.05l-0.062,-0.012l-4.422,-1.169c-1.103,-0.309 -2.216,-0.6 -3.219,-0.769c-1.044,0.241 -3.153,1.878 -3.562,2.178c-0.407,0.3 -1,0.553 -1.51,0.313c-0.515,-0.244 -0.775,-0.797 -0.731,-1.372c0.041,-0.569 0.269,-2.219 -0.531,-3.959c-0.763,-0.707 -1.728,-1.425 -2.75,-2.135l-3.691,-2.637l-0.244,-0.169c-1.95,-1.55 -3.265,-3.475 -4.018,-5.591l-0.26,-0.012l-0.737,-0.785l-2.4,-0.35c0,0 -2.285,-2.562 -4.072,-3.031l-0.616,-0.74c0.016,-0.119 0.182,-1.229 -0.131,-2.088c-0.266,-0.706 -0.791,-1.072 -1.072,-1.225c-0.365,0.484 -1.415,1.909 -2.247,3.172c-0.89,1.341 -2.428,2.678 -2.868,3.047c0.387,1.8 0.615,3.625 0.759,5.456c0.137,0.156 0.519,0.572 0.916,1.156c0.356,0.538 1.681,1.928 1.84,2.357c0.094,0.253 0.116,0.712 -0.365,0.856c-0.663,0.197 -1.438,-0.206 -1.979,-0.563l-0.556,-0.359l-0.319,-1.031l-1.228,-1.182c-0.24,-1.584 -0.356,-3.231 -0.918,-4.75c-0.375,-1.034 -0.944,-2.015 -0.944,-2.015l0.153,-0.638c0.781,-1.037 2.525,-3.512 2.075,-4.74c-0.166,-0.466 -0.753,-0.963 -1.109,-1.294c-0.457,-0.431 -0.975,-0.922 -1.31,-1.553c-0.959,0.297 -2.094,0.247 -2.65,-0.988c-0.153,-0.375 -0.1,-0.818 -0.006,-1.125c0.234,-0.706 0.987,-0.897 0.875,0.072c-0.016,0.141 -0.047,0.347 0,0.478c0.166,0.453 0.912,0.269 1.384,0.107c-0.09,-1.129 0.222,-2.3 0.753,-3.269c0.822,-1.513 2.629,-2.719 2.916,-2.9c0.153,-0.188 0.938,-1.106 2.125,-2.2c0.6,-0.553 1.272,-1.131 2.078,-1.716c2.444,-1.759 3.706,-3.894 3.928,-4.297l-0.412,-1.984c-1.247,-1.05 -2.594,-2.5 -3.022,-3.975c-0.091,-0.316 -0.15,-0.578 -0.181,-0.741c-0.975,-0.106 -3.76,-0.747 -4.135,-2.015l2.628,-0.353l-1.69,-1.522Zm72.175,91.778c-1.956,-2.294 -2.71,-3.107 -4.791,-5.269l6.091,2.631c1.144,0.441 1.553,0.906 1.415,0.916c-1.903,0.184 -2.593,1.537 -2.715,1.722m-0.138,-33.235c-0.365,4.007 -2.3,7.56 -5.565,10.291c-2.566,2.125 -5.578,3.428 -8.572,3.688c3.075,1.859 7.575,3.934 12.362,3.934c7.719,0 8.719,-1.572 8.719,-2.938c0,-0.506 0.203,-0.978 0.553,-1.34c0.366,-0.363 0.847,-0.56 1.35,-0.56c1.05,0 1.903,0.853 1.903,1.904c0,6.74 -8.762,6.74 -12.509,6.74l-1.431,-0.078c0.859,0.441 2.193,1.125 2.293,1.172c5.463,2.409 5.479,2.409 5.494,2.425c1.319,0.541 2.185,0.9 3.488,1.709c3.6,2.228 5.418,4.96 5.418,8.103c0,3.325 -2.471,6.888 -6.15,6.888c-3.393,0 -5.768,-2.585 -5.768,-6.288c0,-1.062 0.837,-1.893 1.909,-1.893c1.044,0 1.897,0.846 1.897,1.893c0,1.969 1.156,2.497 1.834,2.497c1.035,0 2.472,-1.178 2.472,-3.097c0,-1.793 -1.147,-3.337 -3.631,-4.868c-1.041,-0.657 -1.644,-0.904 -2.959,-1.447l-5.672,-2.491c-0.032,-0.012 -5.725,-2.953 -6.647,-3.425l-0.016,0l-0.134,-0.087c-3.731,-2.316 -7.263,-5 -10.894,-8.257l-1.441,-1.125l0.36,-0.29c0,0 2.528,0.884 3.24,-0.053c0.725,-0.953 0.216,-3.163 0.216,-3.163l0.922,0.175c0.059,0.016 0.478,0.05 0.478,0.05c0.244,0.019 0.531,0.031 0.806,0.031c3.594,0 6.813,-2.025 7.666,-2.737c2.497,-2.072 3.95,-4.731 4.219,-7.7c0.028,-0.344 0.043,-0.691 0.043,-1.025c0,-3.125 -1.209,-5.572 -2.243,-6.719c-0.497,-0.547 -0.763,-1.197 -0.763,-1.828c0,-0.466 0.138,-0.888 0.413,-1.178c0.381,-0.388 0.79,-0.572 1.256,-0.572c0.662,0.009 1.337,0.381 2.009,1.122c1.963,2.194 3.128,5.603 3.128,9.119c0,0.475 -0.006,0.947 -0.053,1.418m8.86,44.597c3.997,-0.79 7.506,-4.737 7.506,-9.475c0,-2.912 -1.178,-7.119 -6.791,-10.597c-0.822,-0.509 -1.506,-0.875 -2.212,-1.2c4.087,-1.49 6.24,-4.34 6.24,-8.347c0,-2.609 -2.125,-4.743 -4.756,-4.746c-1.265,0 -2.453,0.49 -3.365,1.396c-0.763,0.779 -1.235,1.766 -1.347,2.838c-0.55,0.216 -2.072,0.609 -5.91,0.609c-1.422,0 -2.953,-0.237 -4.55,-0.7c0.76,-0.318 3.628,-2.697 4.628,-3.662c0.997,-0.972 3.744,-1.725 4.947,-3.769c3.175,-5.434 4.363,-8.281 5.535,-13.241c0.603,-2.487 0.89,-4.721 0.89,-6.825c0,-1.868 -0.243,-3.381 -0.45,-4.69l-0.272,-2.116c-0.153,-1.703 -0.55,-6.15 -4.437,-7.462c0,0 -6.778,-10.15 -6.975,-10.482c-0.206,-0.328 -0.556,-0.421 -0.806,-0.134c-0.253,0.291 -2.9,3.375 -2.9,3.375c-0.632,0.025 -1.819,0.147 -2.872,0.628c-0.191,-0.262 -0.41,-0.5 -0.647,-0.703c-0.197,-0.175 -0.419,-0.331 -0.684,-0.484l-1.204,-7.744l-0.853,0.144c0,0 -4.093,0.687 -4.14,0.7c-0.191,-0.007 -1.141,-0.2 -2.344,-0.76c-0.306,-0.143 -0.959,-0.678 -1.288,-1.031c0.047,-0.384 0.085,-0.766 0.085,-1.134c0,-3.713 -1.86,-6.628 -5.222,-8.203c-2.172,-1.013 -6.372,-2.072 -10.444,2.031c-0.297,-0.044 -0.815,-0.147 -1.684,-0.385c-1.188,-0.431 -1.744,-0.987 -1.813,-1.084l-2.625,-4.528l-6.256,3.744c-3.731,-3.063 -5.428,-4.094 -7.775,-3.188c-0.903,0.35 -1.566,0.975 -2.444,1.944c0.228,-0.475 0.419,-1.047 0.419,-1.584c0,-2.419 -1.872,-4.547 -4.459,-4.547c-0.303,-0.185 -0.616,-0.363 -0.944,-0.522c-0.534,-1.294 -2.019,-4.885 -2.163,-5.219c-0.143,-0.337 -0.684,-0.431 -0.99,-0.181c-0.313,0.25 -7.428,5.962 -7.428,5.962c-0.969,-4.503 -4.15,-7.803 -8.094,-8.7l0,-7.106l-3.594,0l0,-0.187c0,-9.697 -6.575,-16.741 -15.644,-16.741c-0.387,0 -0.903,0.069 -1.459,0.162l0,-6.381l6.903,0l0,-10.803l-6.903,0l0,-7.003l-11.191,0l0,7.003l-6.896,0l0,10.803l6.896,0l0,6.463c-0.793,-0.141 -1.553,-0.244 -2.156,-0.244c-9.209,0 -15.644,6.884 -15.628,16.928l-4.231,0l0,7.156c-4.141,1.207 -7.31,5.178 -7.819,10.116l-3.281,-2.75c-0.169,-0.138 -6.256,-5.253 -6.256,-5.253l-0.672,-0.56l-12.888,15.369c-1.49,-1.012 -3.472,-1.519 -5.9,-1.522c-4.134,0 -8.397,1.575 -9.319,1.575c-4.184,-4.306 -8.531,-3.231 -10.762,-2.187c-2.459,1.14 -5.375,3.512 -5.375,8.334c0,0.416 0.031,0.866 0.091,1.322c-0.219,0.209 -0.663,0.584 -1.597,1.228c-0.016,0.013 -0.747,0.519 -0.747,0.528c-4.597,3.347 -7.103,6.628 -7.469,9.878l-20.075,0l0.009,18.519l13.885,0c-0.86,0.756 -6.219,4.972 -6.219,13.525c0,10.147 8.375,15.081 9.341,15.644c-1.644,0.491 -3.191,0.734 -4.675,0.734c-3.753,0 -5.313,-0.384 -5.9,-0.606c-0.25,-2.375 -2.275,-4.237 -4.713,-4.237c-2.74,0 -4.734,2.303 -4.734,4.746c0,5.729 4.644,7.819 6.15,8.372c-0.675,0.31 -8.95,3.922 -8.95,11.716c0,5.016 3.509,8.769 7.528,9.537c-16.238,23.366 -25.722,51.744 -25.547,82.3c0.463,78.904 65.05,142.719 143.953,142.257c78.919,-0.472 142.735,-65.05 142.263,-143.953c-0.175,-29.947 -9.591,-57.707 -25.525,-80.61" style="fill:#697d8b;fill-rule:nonzero;"/><path d="M1584.48,346.004l0,-100.915l100.541,0c-0.741,55.187 -45.403,99.962 -100.541,100.915m0,-204.653c54.925,0.944 99.45,45.381 100.541,100.288l-100.541,0l0,-100.288Zm-3.472,100.288l-100.637,0c1.081,-54.947 45.659,-99.41 100.637,-100.288l0,100.288Zm0,104.365c-55.184,-0.89 -99.906,-45.69 -100.653,-100.915l100.653,0l0,100.915Zm107.485,-102.325c0,-58.343 -47.466,-105.806 -105.804,-105.806c-58.34,0 -105.806,47.463 -105.806,105.806c0,58.332 47.466,105.797 105.806,105.797c58.338,0 105.804,-47.465 105.804,-105.797" style="fill:#697d8b;fill-rule:nonzero;"/><path d="M1498.19,320.388c-0.381,-0.435 -1.272,-1.591 -2.269,-2.741c-0.197,-0.228 -0.481,-0.312 -0.64,-0.169c-0.16,0.138 -0.069,0.382 0.093,0.566c1.225,1.4 1.225,1.681 -1.409,3.981l-8.572,7.482c-0.228,0.2 -0.334,0.259 -0.959,-0.457c-1.5,-1.718 -1.15,-3.675 0.815,-5.397c1.697,-1.475 3.722,-1.234 4.688,-0.137c0.381,0.434 0.594,0.45 0.753,0.312c0.275,-0.243 -0.166,-0.7 -0.303,-0.859c-2.206,-2.522 -5.519,-2.856 -7.994,-0.694c-2.131,1.857 -1.394,4.644 0.541,6.866c0.709,0.8 1.628,1.775 2.253,2.484c0.419,0.478 1.309,1.597 2.109,2.51c0.297,0.353 0.494,0.381 0.632,0.259c0.159,-0.137 0.153,-0.334 -0.069,-0.584c-0.935,-1.082 -1.013,-1.532 0.175,-2.575l8.322,-7.263c2.178,-1.894 2.587,-1.887 3.378,-0.972c0.184,0.203 0.365,0.325 0.528,0.182c0.159,-0.138 0.159,-0.372 -0.122,-0.654c-0.578,-0.709 -1.594,-1.728 -1.95,-2.14" style="fill:#697d8b;fill-rule:nonzero;"/><path d="M1471.46,311.786c-1.909,-3.144 -0.775,-7.257 3.519,-9.86c5.535,-3.362 8.06,-0.622 8.869,0.71c2.237,3.69 0.441,7.809 -3.541,10.231c-4.75,2.915 -7.515,1.103 -8.847,-1.081m14.016,-9.044c-3.047,-5.016 -8.512,-6.044 -13.009,-3.313c-4.478,2.719 -5.428,7.532 -2.444,12.447c3.594,5.931 9.287,5.572 12.644,3.531c3.484,-2.115 6.265,-6.962 2.809,-12.665" style="fill:#697d8b;fill-rule:nonzero;"/><path d="M1477.73,291.11c0.116,0.313 0.244,0.425 0.419,0.366c0.25,-0.091 0.266,-0.328 0.106,-0.685c-0.397,-1.118 -0.822,-2.131 -0.89,-2.306c-0.153,-0.428 -0.403,-1.309 -0.897,-2.716c-0.147,-0.371 -0.338,-0.562 -0.572,-0.475c-0.138,0.047 -0.175,0.219 -0.063,0.541c0.472,1.316 0.329,1.988 -1.75,2.794l-8.693,3.272l7.4,-15.56c0.168,-0.35 0.29,-0.715 0.206,-0.975c-0.091,-0.228 -0.381,-0.318 -0.9,-0.137l-13.572,4.644c-1.362,0.459 -1.856,0.409 -2.253,-0.682c-0.122,-0.343 -0.275,-0.487 -0.441,-0.425c-0.228,0.085 -0.222,0.372 -0.1,0.716c0.381,1.062 0.76,1.862 0.844,2.091c0.169,0.462 0.45,1.521 0.847,2.64c0.19,0.419 0.365,0.647 0.562,0.575c0.235,-0.081 0.222,-0.3 0.128,-0.559c-0.524,-1.463 -0.318,-1.863 1.31,-2.478l9.356,-3.61l-7.634,15.353c-0.169,0.347 -0.403,0.95 -0.275,1.332c0.1,0.25 0.456,0.25 0.937,0.084l13.169,-4.531c2.163,-0.738 2.353,-0.388 2.756,0.731" style="fill:#697d8b;fill-rule:nonzero;"/><path d="M1457.39,273.472c0.244,-0.047 0.481,-0.116 0.419,-0.413c-0.032,-0.212 -0.207,-0.303 -0.419,-0.303c-0.828,0.025 -1.409,-0.459 -1.772,-2.222l-0.65,-3.212l11.147,-1.944c3.531,-0.606 3.866,-0.45 4.087,0.809c0.054,0.269 0.144,0.469 0.382,0.394c0.212,-0.003 0.303,-0.203 0.234,-0.594c-0.15,-0.9 -0.472,-2.328 -0.556,-2.837c-0.113,-0.663 -0.297,-2.078 -0.547,-3.547c-0.063,-0.328 -0.222,-0.55 -0.425,-0.485c-0.244,0.013 -0.269,0.263 -0.222,0.507c0.313,1.793 0.138,2.068 -3.609,2.722l-11,1.906l-0.41,-2.735c-0.322,-2.015 0.044,-2.603 0.966,-2.821c0.412,-0.104 0.509,-0.244 0.472,-0.454c-0.06,-0.171 -0.197,-0.243 -0.531,-0.218c-0.572,0.068 -2.141,0.284 -2.591,0.359c-0.45,0.075 -0.584,0.194 -0.547,0.403c0.031,0.181 0.366,0.678 0.609,2.116l1.766,10.125c0.191,1.112 -0.075,1.903 -0.037,2.109c0.037,0.21 0.165,0.247 0.568,0.303c0.169,0.032 2.094,0.132 2.666,0.032" style="fill:#697d8b;fill-rule:nonzero;"/><path d="M1452.28,253.432c-0.06,-1.282 0.297,-1.45 1.14,-1.55c0.763,-0.097 1.363,-0.097 4.807,-0.297l3.981,-0.197c2.184,-0.103 3.981,-0.191 4.894,-0.116c1.012,0.044 1.187,0.366 1.234,1.31c0.006,0.275 0.081,0.487 0.287,0.481c0.222,-0.016 0.366,-0.206 0.344,-0.603c-0.078,-0.907 -0.212,-2.366 -0.237,-2.882c-0.028,-0.609 -0.007,-2.071 -0.075,-3.562c-0.032,-0.394 -0.185,-0.572 -0.397,-0.559c-0.219,0.009 -0.297,0.259 -0.281,0.503c0.062,1.275 -0.06,1.918 -0.966,2.028c-0.975,0.106 -2.763,0.225 -4.95,0.331l-3.988,0.194c-3.434,0.172 -4.065,0.228 -4.771,0.203c-1.007,-0.038 -1.272,-0.331 -1.319,-1.366c-0.006,-0.215 -0.085,-0.484 -0.388,-0.468c-0.184,0.037 -0.265,0.228 -0.243,0.625c0.037,0.878 0.165,2.209 0.196,2.787c0.032,0.675 0.038,2.103 0.085,2.981c0.022,0.457 0.153,0.666 0.334,0.653c0.275,-0.009 0.328,-0.287 0.313,-0.496" style="fill:#697d8b;fill-rule:nonzero;"/><path d="M1451.61,240.025c0.181,0.013 0.288,-0.162 0.313,-0.493c0.112,-1.61 0.403,-1.807 2.709,-1.641l10.156,0.703c3.16,0.219 3.256,0.556 3.181,1.713c-0.021,0.271 0.022,0.462 0.275,0.475c0.235,0.021 0.341,-0.16 0.366,-0.55c0.069,-0.882 0.106,-2.341 0.144,-2.919c0.044,-0.61 0.206,-2.031 0.303,-3.488c0.031,-0.422 -0.113,-0.615 -0.288,-0.628c-0.243,-0.015 -0.321,0.191 -0.334,0.46c-0.122,1.703 -0.175,2.062 -3.456,1.84l-3.61,-0.253c-0.1,-0.006 -0.121,-0.072 -0.115,-0.191c0.031,-0.365 0.184,-2.671 0.29,-3.24c0.154,-0.844 0.807,-1.135 1.507,-1.085c0.212,0.013 0.434,-0.093 0.45,-0.275c0.015,-0.306 -0.25,-0.356 -0.525,-0.375c-1.728,-0.115 -2.588,-0.446 -3.047,-0.481c-0.15,-0.012 -0.303,0.041 -0.319,0.225c-0.022,0.331 0.641,0.372 0.572,1.435l-0.228,3.737c0,0.059 -0.016,0.153 -0.106,0.144l-6.579,-0.456c-0.121,-0.007 -0.184,-0.072 -0.175,-0.163l0.297,-3.453c0.06,-0.856 0.425,-1.256 0.707,-1.359c0.253,-0.135 0.556,-0.11 0.831,-0.094c0.334,0.025 0.494,-0.085 0.503,-0.297c0.022,-0.216 -0.159,-0.319 -0.397,-0.366c-0.266,-0.081 -1.597,-0.203 -1.819,-0.25c-0.297,-0.053 -0.562,-0.131 -0.859,-0.212c-0.031,-0.031 -0.122,-0.038 -0.153,-0.041c-0.185,-0.012 -0.344,0.072 -0.36,0.253c0,0.094 0.053,0.188 0.078,0.244l0.032,0.097c0.097,0.25 0.037,0.706 0.053,0.978c-0.041,0.519 -0.328,5.163 -0.397,6.041c-0.047,0.672 -0.206,2.09 -0.281,3.272c-0.032,0.459 0.043,0.675 0.281,0.693" style="fill:#697d8b;fill-rule:nonzero;"/><path d="M1453.64,222.433c0.237,-1.253 0.625,-1.341 1.468,-1.238c0.763,0.082 1.357,0.228 4.744,0.841l3.919,0.747c2.156,0.412 3.915,0.747 4.79,1.034c0.966,0.278 1.057,0.638 0.882,1.566c-0.053,0.269 -0.032,0.487 0.175,0.528c0.212,0.041 0.397,-0.109 0.465,-0.497c0.144,-0.906 0.357,-2.353 0.457,-2.859c0.115,-0.597 0.478,-2.019 0.762,-3.485c0.069,-0.387 -0.047,-0.597 -0.259,-0.634c-0.207,-0.038 -0.344,0.184 -0.388,0.419c-0.244,1.256 -0.512,1.856 -1.419,1.747c-0.965,-0.125 -2.737,-0.429 -4.893,-0.838l-3.919,-0.75c-3.381,-0.644 -4.013,-0.734 -4.691,-0.925c-0.968,-0.278 -1.15,-0.619 -0.953,-1.641c0.041,-0.203 0.031,-0.49 -0.272,-0.546c-0.184,0 -0.312,0.159 -0.381,0.546c-0.169,0.869 -0.359,2.197 -0.466,2.769c-0.128,0.66 -0.446,2.05 -0.621,2.916c-0.085,0.45 0,0.681 0.175,0.719c0.271,0.05 0.378,-0.207 0.425,-0.419" style="fill:#697d8b;fill-rule:nonzero;"/><path d="M1463.61,211.391c6.106,2.184 10.475,-1.76 12.318,-7.166c0.479,-1.387 0.935,-3.097 0.891,-4.103c-0.041,-0.434 -0.137,-0.625 -0.472,-0.872c-0.672,-0.484 -2.453,-1.387 -2.74,-1.481c-0.232,-0.081 -0.435,-0.05 -0.504,0.147c-0.075,0.234 -0.015,0.315 0.35,0.572c1.613,1.128 1.988,2.381 0.938,5.462c-1.303,3.806 -4.834,5.844 -9.875,4.122c-3.981,-1.522 -6.091,-4.206 -4.681,-8.325c0.875,-2.534 2.731,-4.788 5.009,-4.013c0.372,0.132 0.616,0.082 0.7,-0.146c0.069,-0.229 -0.1,-0.388 -0.466,-0.541c-0.409,-0.206 -1.59,-0.609 -2.296,-0.888c-0.732,-0.312 -0.975,-0.459 -1.144,-0.518c-0.206,-0.066 -0.356,0.006 -0.494,0.312c-0.481,1.128 -1.578,2.55 -2.444,5.081c-1.759,5.129 -0.334,10.569 4.91,12.357" style="fill:#697d8b;fill-rule:nonzero;"/><path d="M1464.65,187.323c0.578,-1.137 0.975,-1.106 1.759,-0.775c0.706,0.288 1.241,0.597 4.316,2.125l3.556,1.81c1.947,0.997 3.547,1.809 4.306,2.328c0.853,0.541 0.838,0.909 0.413,1.753c-0.122,0.238 -0.169,0.459 0.022,0.553c0.19,0.097 0.412,0 0.587,-0.347c0.388,-0.828 0.997,-2.156 1.231,-2.615c0.275,-0.55 1.022,-1.81 1.7,-3.138c0.182,-0.35 0.129,-0.581 -0.062,-0.678c-0.191,-0.103 -0.381,0.081 -0.494,0.297c-0.578,1.137 -1.006,1.641 -1.844,1.275c-0.896,-0.388 -2.518,-1.172 -4.468,-2.166l-3.553,-1.815c-3.06,-1.553 -3.647,-1.822 -4.247,-2.191c-0.853,-0.537 -0.932,-0.916 -0.46,-1.844c0.1,-0.19 0.169,-0.456 -0.106,-0.593c-0.175,-0.057 -0.334,0.065 -0.516,0.415c-0.406,0.788 -0.953,2.01 -1.218,2.522c-0.307,0.6 -1.013,1.844 -1.41,2.628c-0.206,0.41 -0.19,0.653 -0.031,0.738c0.244,0.125 0.428,-0.091 0.519,-0.282" style="fill:#697d8b;fill-rule:nonzero;"/><path d="M1484.74,173.671l-2.794,3.947l-3.913,-5.66c-0.031,-0.022 -0.047,-0.034 -0.068,-0.05l0.084,0.028l6.691,1.735Zm-1.729,8.956c0.938,1.431 0.991,2.1 0.191,3.25c-0.106,0.15 -0.175,0.359 0.038,0.469c0.206,0.14 0.359,0.068 0.593,-0.257c0.669,-0.971 1.341,-2.031 1.494,-2.256c0.403,-0.572 1.025,-1.365 1.444,-1.959c0.175,-0.253 0.231,-0.435 0,-0.594c-0.197,-0.134 -0.335,-0.05 -0.647,0.403c-0.419,0.594 -0.722,0.61 -0.997,0.419c-0.197,-0.141 -0.578,-0.553 -0.928,-1.063l-1.356,-2.093c-0.06,-0.075 -0.038,-0.172 0.015,-0.244l3.197,-4.525c0.069,-0.103 0.131,-0.134 0.191,-0.122l4.044,0.963c0.206,0.071 -0.35,1.084 -0.397,1.203c-0.075,0.168 -0.153,0.381 0.022,0.503c0.184,0.122 0.471,-0.044 0.809,-0.519c0.244,-0.347 0.981,-1.572 1.369,-2.122c0.35,-0.5 0.997,-1.269 1.325,-1.744c0.556,-0.8 0.547,-1.062 0.403,-1.165c-0.213,-0.11 -0.335,-0.05 -0.488,0.175c-0.631,0.897 -2.015,0.712 -3.334,0.419c-3.675,-0.738 -13.344,-2.997 -14.675,-3.26c-0.663,-0.125 -0.9,-0.103 -1.066,0.081c-0.137,0.197 -0.031,0.532 0.394,1.2l8.359,12.838Z" style="fill:#697d8b;fill-rule:nonzero;"/><path d="M1491.98,149.044c1.187,-1 1.537,-0.966 3.053,0.843l4.331,5.163c3.403,4.066 6.769,4.384 10.481,1.269c4.013,-3.363 3.282,-7.125 -0.037,-11.094l-3.716,-4.475c-1.469,-1.756 -1.681,-2.05 -0.584,-2.972c0.281,-0.237 0.328,-0.428 0.181,-0.594c-0.137,-0.159 -0.334,-0.112 -0.662,0.16c-0.675,0.572 -1.332,1.203 -1.941,1.712c-0.494,0.41 -1.203,0.888 -2.094,1.631c-0.328,0.275 -0.387,0.485 -0.272,0.625c0.135,0.16 0.357,0.138 0.616,-0.078c1.309,-1.093 1.581,-0.809 3.028,0.922l3.991,4.803c2.868,3.519 3.509,5.8 0.943,7.953c-2.915,2.444 -5.284,0.766 -7.59,-1.987l-4.247,-5.066c-1.438,-1.728 -1.478,-2.14 -0.541,-2.922c0.26,-0.218 0.291,-0.409 0.16,-0.571c-0.138,-0.166 -0.357,-0.144 -0.678,0.134c-0.638,0.528 -1.438,1.325 -2.116,1.887c-0.928,0.785 -1.691,1.297 -2.625,2.085c-0.328,0.275 -0.397,0.484 -0.253,0.647c0.115,0.14 0.312,0.137 0.572,-0.075" style="fill:#697d8b;fill-rule:nonzero;"/><path d="M1519.7,144.625c1.072,2.016 0.747,2.259 -0.291,2.831c-0.297,0.16 -0.378,0.316 -0.297,0.475c0.138,0.241 0.366,0.216 0.703,0c1.041,-0.575 1.963,-1.156 2.132,-1.243c0.403,-0.222 1.225,-0.607 2.54,-1.325c0.344,-0.191 0.497,-0.416 0.381,-0.629c-0.075,-0.131 -0.259,-0.14 -0.546,0.019c-1.229,0.675 -1.913,0.638 -3.038,-1.281l-4.606,-8.069l16.534,4.847c0.372,0.109 0.753,0.175 0.997,0.041c0.222,-0.119 0.25,-0.419 -0.006,-0.897l-6.731,-12.675c-0.663,-1.266 -0.691,-1.772 0.312,-2.328c0.334,-0.175 0.441,-0.344 0.35,-0.507c-0.116,-0.212 -0.397,-0.159 -0.716,0.016c-0.981,0.544 -1.721,1.05 -1.934,1.166c-0.425,0.237 -1.422,0.681 -2.466,1.256c-0.387,0.25 -0.587,0.459 -0.478,0.647c0.113,0.212 0.325,0.165 0.569,0.028c1.363,-0.741 1.791,-0.6 2.65,0.906l5.041,8.663l-16.36,-5.11c-0.375,-0.103 -1.006,-0.25 -1.356,-0.059c-0.244,0.137 -0.181,0.484 0.069,0.94l6.547,12.288Z" style="fill:#697d8b;fill-rule:nonzero;"/><path d="M1534.8,121.966c1.203,-0.438 1.469,-0.15 1.819,0.634c0.322,0.694 0.497,1.275 1.7,4.497l1.362,3.75c0.744,2.06 1.363,3.744 1.566,4.65c0.253,0.975 -0.016,1.225 -0.897,1.553c-0.253,0.094 -0.434,0.222 -0.366,0.422c0.075,0.203 0.303,0.281 0.669,0.15c0.853,-0.344 2.2,-0.9 2.688,-1.081c0.571,-0.206 1.981,-0.619 3.381,-1.128c0.372,-0.131 0.494,-0.341 0.419,-0.544c-0.079,-0.197 -0.335,-0.197 -0.563,-0.119c-1.203,0.438 -1.85,0.516 -2.225,-0.322c-0.387,-0.9 -1.028,-2.568 -1.787,-4.631l-1.357,-3.75c-1.178,-3.231 -1.422,-3.819 -1.606,-4.5c-0.25,-0.978 -0.053,-1.309 0.922,-1.665c0.197,-0.069 0.441,-0.222 0.328,-0.507c-0.094,-0.162 -0.291,-0.184 -0.662,-0.05c-0.832,0.303 -2.063,0.819 -2.619,1.016c-0.619,0.225 -1.981,0.659 -2.819,0.959c-0.431,0.16 -0.584,0.347 -0.525,0.513c0.094,0.259 0.375,0.225 0.572,0.153" style="fill:#697d8b;fill-rule:nonzero;"/><path d="M1545.54,117.844c1.453,-0.31 2.169,0.222 2.847,1.203l8.862,12.741c0.404,0.568 0.716,0.846 0.95,0.79c0.319,-0.069 0.466,-0.412 0.657,-1.322l3.09,-14.65c0.382,-1.853 0.663,-2.415 1.735,-2.643c0.328,-0.075 0.456,-0.191 0.412,-0.4c-0.04,-0.21 -0.275,-0.282 -0.662,-0.204c-0.657,0.141 -1.235,0.36 -2.072,0.538c-0.616,0.131 -1.263,0.181 -2.397,0.419c-0.503,0.109 -0.725,0.278 -0.647,0.512c0.022,0.188 0.272,0.225 0.541,0.166c0.715,-0.153 1.103,-0.078 1.156,0.184c0.044,0.185 0.059,0.525 -0.009,0.819l-2.01,11.831l-5.937,-9.072c-0.503,-0.762 -0.807,-1.325 -0.869,-1.59c-0.106,-0.507 0.497,-0.603 0.878,-0.716c0.272,-0.056 0.434,-0.181 0.378,-0.397c-0.037,-0.206 -0.362,-0.262 -0.69,-0.194c-1.129,0.244 -2.185,0.566 -2.75,0.688c-0.785,0.131 -2.069,0.344 -3.272,0.603c-0.413,0.094 -0.685,0.275 -0.641,0.481c0.047,0.21 0.213,0.269 0.45,0.213" style="fill:#697d8b;fill-rule:nonzero;"/><path d="M1568.92,113.489c1.278,-0.084 1.781,0.194 1.844,1.138c0.044,0.728 0.112,1.328 0.334,4.769l0.25,4.012c0.078,1.184 0.116,2.316 0.175,3.228c0.16,2.55 0,2.806 -1.284,2.888c-0.269,0.015 -0.444,0.118 -0.434,0.328c0.006,0.212 0.165,0.325 0.562,0.3c0.913,-0.053 2.375,-0.203 2.884,-0.238c2.438,-0.156 4.691,-0.175 6.913,-0.315c0.487,-0.063 0.662,-0.225 0.775,-0.722c0.062,-0.491 0.147,-2.025 0.116,-2.541c-0.022,-0.306 -0.069,-0.547 -0.335,-0.5c-0.244,0.016 -0.297,0.172 -0.344,0.45c-0.09,0.925 -0.312,1.331 -0.837,1.641c-0.569,0.281 -2.297,0.419 -2.869,0.459c-1.644,0.103 -1.865,0.053 -1.965,-1.5c-0.029,-0.665 -0.16,-2.672 -0.335,-5.225c0,-0.062 0.031,-0.122 0.131,-0.134c0.175,-0.006 2.7,-0.11 3.119,-0.131c1.075,-0.072 1.341,0.8 1.388,1.5c0.006,0.146 0.106,0.325 0.328,0.315c0.294,-0.019 0.309,-0.325 0.294,-0.572c-0.075,-1.212 0.093,-2.875 0.071,-3.178c-0.009,-0.212 -0.137,-0.294 -0.29,-0.284c-0.153,0.006 -0.26,0.228 -0.547,0.459c-0.178,0.135 -0.731,0.475 -1.95,0.553c-0.975,0.06 -2.103,0.1 -2.428,0.122c-0.131,0.006 -0.191,-0.015 -0.2,-0.144l-0.388,-6.081c-0.006,-0.087 0.032,-0.119 0.085,-0.125c4.437,-0.278 4.606,-0.169 4.881,1.31c0.044,0.178 0.059,0.425 0.325,0.412c0.244,-0.022 0.35,-0.175 0.344,-0.394c-0.116,-1.853 0.112,-2.512 0.09,-2.965c-0.015,-0.182 -0.084,-0.332 -0.275,-0.322c-0.175,0.012 -0.553,0.281 -1.347,0.334c-0.425,0.022 -4.984,0.313 -5.715,0.356c-0.631,0.044 -2.063,0.069 -3.313,0.15c-0.425,0.025 -0.6,0.16 -0.584,0.372c0.012,0.216 0.166,0.294 0.531,0.275" style="fill:#697d8b;fill-rule:nonzero;"/><path d="M1591.93,114.262c0.007,-0.153 0.053,-0.3 1.325,-0.184c1.972,0.184 3.257,1.797 3.022,4.312c-0.19,2.057 -1.128,3.591 -3.181,3.4c-1.272,-0.118 -1.806,-0.315 -1.769,-0.712l0.603,-6.816Zm-5.718,15.266c0.906,0.112 2.346,0.15 2.796,0.19c0.325,0.032 2.022,0.247 3.357,0.375c0.397,0.035 0.556,-0.106 0.572,-0.287c0.021,-0.213 -0.154,-0.319 -0.338,-0.334c-1.812,-0.166 -1.978,-0.644 -1.756,-3.035l0.319,-3.512c0.006,-0.06 0.006,-0.06 0.059,-0.057l1.997,0.247c0.181,0.016 0.297,0.119 0.35,0.213c0.753,1.078 1.315,2.2 1.931,3.237c1.584,2.644 2.803,4.041 5.316,4.269l2.175,0.203c0.365,0.038 0.556,-0.037 0.581,-0.281c0.022,-0.216 -0.153,-0.322 -0.366,-0.341c-1.79,-0.162 -3.297,-1.368 -7.315,-8.125c2.328,-1.372 3.24,-3.062 3.403,-4.756c0.287,-3.212 -2.553,-4.444 -5.497,-4.716c-0.684,-0.068 -2.428,-0.137 -3.213,-0.203c-0.487,-0.05 -1.903,-0.24 -3.115,-0.353c-0.456,-0.037 -0.622,0.066 -0.638,0.25c-0.047,0.21 0.122,0.347 0.457,0.375c1.759,0.16 1.787,0.535 1.6,2.563l-1,10.809c-0.197,2.213 -0.404,2.741 -1.704,2.619c-0.275,-0.022 -0.496,0.047 -0.512,0.262c-0.022,0.213 0.153,0.347 0.541,0.388" style="fill:#697d8b;fill-rule:nonzero;"/><path d="M1608.82,132.951c2.953,0.731 6.159,-0.403 6.903,-3.484c1.272,-5.179 -5.237,-7.557 -4.437,-10.844c0.281,-1.247 1.456,-1.963 3.053,-1.572c1.722,0.419 2.603,1.922 2.306,3.137c-0.053,0.238 -0.031,0.525 0.237,0.591c0.235,0.056 0.404,-0.122 0.541,-0.684c0.434,-1.744 0.638,-2.353 0.706,-2.619c0.032,-0.119 0,-0.284 -0.206,-0.428c-0.484,-0.338 -1.506,-0.772 -2.991,-1.138c-3.134,-0.768 -5.7,0.485 -6.296,3.038c-1.225,5.006 5.209,7.206 4.256,11.081c-0.272,1.125 -1.544,2.194 -3.463,1.728c-2.253,-0.553 -2.909,-2.475 -2.528,-4.04c0.053,-0.241 0.053,-0.488 -0.212,-0.557c-0.238,-0.059 -0.45,0.172 -0.541,0.56l-0.853,3.084c-0.197,0.675 1.278,1.603 3.525,2.147" style="fill:#697d8b;fill-rule:nonzero;"/><path d="M1619.55,135.702c0.869,0.294 2.26,0.744 2.747,0.925c0.572,0.219 1.913,0.81 3.306,1.332c0.378,0.14 0.6,0.062 0.675,-0.141c0.069,-0.197 -0.118,-0.369 -0.35,-0.453c-1.203,-0.444 -1.75,-0.813 -1.484,-1.688c0.281,-0.937 0.884,-2.631 1.653,-4.69l1.394,-3.738c1.203,-3.228 1.4,-3.837 1.703,-4.472c0.434,-0.909 0.809,-1.031 1.775,-0.671c0.197,0.071 0.478,0.115 0.587,-0.169c0.038,-0.185 -0.109,-0.331 -0.481,-0.469c-0.828,-0.309 -2.1,-0.725 -2.64,-0.925c-0.632,-0.234 -1.957,-0.794 -2.779,-1.1c-0.434,-0.159 -0.671,-0.122 -0.74,0.05c-0.091,0.256 0.147,0.413 0.344,0.481c1.193,0.45 1.209,0.847 0.975,1.669c-0.207,0.734 -0.45,1.294 -1.632,4.531l-1.39,3.738c-0.769,2.056 -1.403,3.744 -1.828,4.553c-0.441,0.916 -0.807,0.937 -1.697,0.606c-0.253,-0.097 -0.472,-0.115 -0.55,0.088c-0.069,0.197 0.047,0.409 0.412,0.543" style="fill:#697d8b;fill-rule:nonzero;"/><path d="M1637.12,138.078l5.169,-9.178c0.36,-0.631 0.503,-0.766 1.881,0.009c4.363,2.438 6.082,6.644 3.7,11.035c-2.49,4.459 -5.512,5.112 -9.706,2.765c-2.581,-1.44 -2.497,-2.025 -1.044,-4.631m-6.515,1.238c-0.106,0.19 0,0.381 0.34,0.578c0.8,0.444 2.079,1.087 2.56,1.353c0.981,0.553 2.65,1.803 4.109,2.622c5.01,2.834 10.463,2.434 13.438,-2.878c3,-5.369 0.068,-9.663 -5.938,-13.016c-1.197,-0.669 -2.497,-1.331 -3.112,-1.675c-0.557,-0.312 -1.791,-1.103 -2.819,-1.681c-0.403,-0.228 -0.622,-0.21 -0.722,-0.022c-0.106,0.184 -0.016,0.341 0.297,0.516c1.087,0.609 1.394,1.128 0.928,1.953c-0.35,0.64 -0.631,1.209 -2.316,4.212l-1.946,3.481c-2.779,4.972 -3.107,5.169 -3.982,4.682c-0.472,-0.266 -0.715,-0.335 -0.837,-0.125" style="fill:#697d8b;fill-rule:nonzero;"/><path d="M1663.24,145.664c0.031,-0.034 0.037,-0.05 0.047,-0.069l-0.025,0.091l-2.307,6.509l-3.7,-3.122l5.985,-3.409Zm-14.319,3.941c-0.138,-0.119 -0.344,-0.207 -0.472,0c-0.159,0.187 -0.1,0.356 0.206,0.612c0.913,0.76 1.91,1.513 2.122,1.685c0.535,0.45 1.266,1.137 1.822,1.606c0.234,0.194 0.416,0.265 0.584,0.059c0.16,-0.187 0.085,-0.331 -0.334,-0.684c-0.562,-0.466 -0.55,-0.772 -0.328,-1.025c0.153,-0.191 0.594,-0.535 1.128,-0.844l2.206,-1.162c0.085,-0.06 0.169,-0.016 0.244,0.037l4.231,3.578c0.085,0.075 0.122,0.141 0.1,0.206l-1.309,3.938c-0.084,0.206 -1.05,-0.444 -1.166,-0.497c-0.159,-0.097 -0.362,-0.184 -0.5,-0.019c-0.131,0.16 0,0.475 0.441,0.841c0.334,0.278 1.484,1.122 2.003,1.553c0.472,0.388 1.178,1.103 1.619,1.475c0.747,0.622 1.006,0.641 1.128,0.5c0.128,-0.206 0.075,-0.328 -0.138,-0.506c-0.837,-0.7 -0.525,-2.072 -0.128,-3.353c1.066,-3.6 4.157,-13.035 4.528,-14.344c0.185,-0.638 0.185,-0.878 0.016,-1.059c-0.181,-0.15 -0.534,-0.079 -1.225,0.284l-13.528,7.212c-1.506,0.81 -2.169,0.804 -3.25,-0.093" style="fill:#697d8b;fill-rule:nonzero;"/><path d="M1671.62,164.958l8.144,-6.681c0.556,-0.466 0.731,-0.535 1.744,0.687c3.184,3.847 3.265,8.397 -0.541,11.622c-3.95,3.26 -6.994,2.772 -10.047,-0.937c-1.887,-2.275 -1.6,-2.788 0.7,-4.691m-5.787,-0.787c-0.341,-0.422 -0.547,-0.575 -0.738,-0.416c-0.159,0.134 -0.137,0.353 0.116,0.659c0.578,0.703 1.537,1.766 1.887,2.191c0.716,0.866 1.819,2.634 2.885,3.925c3.646,4.453 8.878,6.056 13.565,2.181c4.744,-3.915 3.556,-8.975 -0.822,-14.284c-0.875,-1.053 -1.85,-2.141 -2.29,-2.681c-0.413,-0.491 -1.272,-1.679 -2.025,-2.591c-0.291,-0.353 -0.503,-0.419 -0.663,-0.284c-0.169,0.14 -0.144,0.315 0.097,0.596c0.794,0.963 0.884,1.554 0.153,2.154c-0.562,0.468 -1.034,0.893 -3.684,3.09l-3.075,2.541c-4.391,3.619 -4.766,3.69 -5.406,2.919" style="fill:#697d8b;fill-rule:nonzero;"/><path d="M1690.01,203.923c0.329,0.29 0.525,0.369 0.938,0.315c0.822,-0.093 2.747,-0.637 3.028,-0.765c0.222,-0.094 0.35,-0.253 0.266,-0.453c-0.107,-0.219 -0.203,-0.235 -0.647,-0.175c-1.947,0.256 -3.075,-0.41 -4.385,-3.391c-1.621,-3.681 -0.403,-7.578 4.469,-9.722c3.966,-1.575 7.331,-1.028 9.081,2.953c1.082,2.457 1.235,5.385 -0.965,6.35c-0.36,0.157 -0.503,0.36 -0.413,0.578c0.107,0.222 0.338,0.222 0.71,0.088c0.44,-0.128 1.584,-0.628 2.3,-0.906c0.743,-0.266 1.018,-0.316 1.187,-0.394c0.191,-0.088 0.256,-0.244 0.15,-0.566c-0.403,-1.147 -0.562,-2.943 -1.644,-5.397c-2.184,-4.959 -6.912,-8 -11.981,-5.768c-5.975,2.528 -6.525,8.393 -4.219,13.628c0.588,1.337 1.41,2.906 2.125,3.625" style="fill:#697d8b;fill-rule:nonzero;"/><path d="M1705.64,212.384c0.068,-0.012 0.1,-0.018 0.121,-0.025l-0.021,0.007l-0.091,0.05l-5.709,3.875l-1.129,-4.704l6.829,0.797Zm-13.854,-5.303c-0.046,-0.178 -0.153,-0.372 -0.381,-0.284c-0.237,0.056 -0.29,0.228 -0.2,0.609c0.281,1.156 0.641,2.353 0.71,2.616c0.159,0.681 0.35,1.675 0.525,2.378c0.062,0.297 0.168,0.459 0.434,0.397c0.234,-0.06 0.259,-0.222 0.122,-0.756c-0.169,-0.707 0.031,-0.944 0.35,-1.019c0.234,-0.063 0.79,-0.072 1.409,-0.003l2.466,0.365c0.1,0.007 0.153,0.088 0.165,0.175l1.297,5.382c0.028,0.118 0.013,0.187 -0.04,0.231l-3.388,2.4c-0.197,0.109 -0.584,-0.985 -0.647,-1.097c-0.075,-0.172 -0.181,-0.363 -0.387,-0.313c-0.206,0.054 -0.281,0.385 -0.144,0.944c0.106,0.413 0.531,1.781 0.691,2.428c0.137,0.591 0.29,1.591 0.428,2.15c0.234,0.944 0.434,1.116 0.609,1.075c0.228,-0.087 0.26,-0.225 0.197,-0.487c-0.266,-1.063 0.8,-1.981 1.888,-2.778c2.978,-2.269 11.053,-8.041 12.134,-8.866c0.525,-0.412 0.672,-0.603 0.631,-0.844c-0.05,-0.24 -0.372,-0.381 -1.147,-0.503l-15.165,-2.197c-1.682,-0.243 -2.222,-0.647 -2.557,-2.003" style="fill:#697d8b;fill-rule:nonzero;"/><path d="M1710.09,224.835c-0.243,0.022 -0.481,0.072 -0.456,0.372c0.022,0.219 0.181,0.325 0.397,0.334c0.828,0.057 1.362,0.588 1.575,2.369l0.372,3.275l-11.281,0.966c-3.585,0.309 -3.907,0.122 -4.013,-1.153c-0.022,-0.275 -0.106,-0.479 -0.35,-0.432c-0.206,-0.009 -0.319,0.185 -0.281,0.575c0.075,0.913 0.265,2.366 0.312,2.878c0.053,0.669 0.113,2.1 0.244,3.585c0.022,0.337 0.166,0.572 0.381,0.519c0.25,0.012 0.282,-0.241 0.266,-0.479c-0.159,-1.821 0.031,-2.084 3.828,-2.406l11.131,-0.956l0.175,2.769c0.144,2.034 -0.268,2.59 -1.203,2.728c-0.419,0.069 -0.534,0.197 -0.519,0.409c0.054,0.181 0.185,0.263 0.519,0.263c0.578,-0.019 2.163,-0.094 2.619,-0.132c0.456,-0.037 0.6,-0.143 0.578,-0.353c-0.016,-0.184 -0.306,-0.709 -0.428,-2.162l-0.881,-10.26c-0.1,-1.121 0.234,-1.887 0.222,-2.096c-0.025,-0.213 -0.147,-0.263 -0.557,-0.354c-0.153,-0.046 -2.072,-0.309 -2.65,-0.259" style="fill:#697d8b;fill-rule:nonzero;"/><path d="M1712.68,254.383c-0.344,3.672 -3.625,6.322 -8.694,5.884c-6.431,-0.553 -6.85,-4.25 -6.716,-5.8c0.366,-4.309 4.266,-6.603 8.932,-6.172c5.556,0.478 6.7,3.541 6.478,6.088m3.987,4.069c-0.106,-0.16 -1.931,-3.404 -2.768,-4.7c-0.138,-5.907 -4.485,-8.607 -8.1,-8.916c-4.066,-0.35 -9.213,1.931 -9.785,8.547c-0.5,5.853 3.306,9.94 8.535,10.39c5.146,0.441 8.725,-2.768 9.324,-8.312c0.488,1.787 1.113,4.131 1.107,4.194c0.037,0.278 0.393,0.4 0.653,0.268c0.509,-0.29 0.672,-0.34 0.928,-0.531c0.2,-0.14 0.375,-0.459 0.106,-0.94" style="fill:#697d8b;fill-rule:nonzero;"/><path d="M1710.52,271.69c-0.412,1.594 -0.762,1.503 -3.328,0.841l-8.64,-2.228c-3.56,-0.925 -3.979,-1.125 -3.622,-2.513c0.069,-0.269 0.062,-0.484 -0.181,-0.516c-0.207,-0.053 -0.366,0.066 -0.476,0.472c-0.228,0.885 -0.524,2.285 -0.653,2.788c-0.465,1.797 -0.99,3.234 -1.818,6.447c-0.297,1.147 -0.238,1.384 0.256,1.672c0.603,0.346 2.528,1.031 2.765,1.09c0.357,0.094 0.525,0.044 0.579,-0.162c0.075,-0.297 -0.182,-0.391 -0.35,-0.469c-1.463,-0.663 -1.941,-1.256 -1.332,-3.616c0.728,-2.8 1.029,-2.975 4.057,-2.194l8.64,2.232c2.8,0.728 2.841,0.931 2.466,2.372c-0.091,0.353 -0.006,0.534 0.2,0.587c0.166,0.072 0.325,-0.075 0.431,-0.487c0.238,-0.885 0.594,-2.522 0.725,-3.019c0.159,-0.619 0.6,-1.985 0.853,-3.053c0.128,-0.403 0.06,-0.61 -0.147,-0.666c-0.203,-0.05 -0.334,0.072 -0.425,0.422" style="fill:#697d8b;fill-rule:nonzero;"/><path d="M1705.07,289.797c-0.478,1.184 -0.875,1.191 -1.691,0.925c-0.722,-0.228 -1.278,-0.488 -4.475,-1.76l-3.693,-1.496c-2.025,-0.825 -3.685,-1.504 -4.482,-1.96c-0.9,-0.459 -0.915,-0.825 -0.556,-1.703c0.097,-0.253 0.122,-0.469 -0.078,-0.553c-0.197,-0.081 -0.403,0.031 -0.553,0.4c-0.313,0.856 -0.81,2.231 -1.006,2.709c-0.222,0.563 -0.854,1.885 -1.425,3.266c-0.144,0.362 -0.075,0.587 0.121,0.669c0.2,0.084 0.375,-0.107 0.466,-0.335c0.478,-1.187 0.859,-1.718 1.728,-1.431c0.938,0.313 2.603,0.959 4.628,1.781l3.694,1.5c3.188,1.294 3.791,1.51 4.416,1.828c0.897,0.463 1.003,0.838 0.615,1.797c-0.084,0.197 -0.131,0.472 0.15,0.585c0.185,0.047 0.338,-0.091 0.488,-0.463c0.328,-0.815 0.784,-2.072 1,-2.612c0.25,-0.616 0.844,-1.919 1.178,-2.732c0.175,-0.428 0.137,-0.671 -0.031,-0.74c-0.25,-0.1 -0.41,0.128 -0.494,0.325" style="fill:#697d8b;fill-rule:nonzero;"/><path d="M1693.15,298.631c-5.565,-3.35 -10.628,-0.344 -13.512,4.606c-0.738,1.263 -1.522,2.847 -1.691,3.844c-0.037,0.441 0.016,0.647 0.297,0.95c0.566,0.61 2.141,1.85 2.4,2.003c0.203,0.122 0.409,0.138 0.516,-0.047c0.131,-0.218 0.078,-0.309 -0.229,-0.631c-1.353,-1.431 -1.475,-2.731 0.169,-5.55c2.025,-3.469 5.891,-4.778 10.497,-2.09c3.609,2.281 5.147,5.328 2.953,9.096c-1.353,2.313 -3.631,4.163 -5.709,2.944c-0.341,-0.197 -0.594,-0.197 -0.716,0.01c-0.112,0.212 0.016,0.393 0.344,0.621c0.366,0.285 1.447,0.916 2.094,1.325c0.647,0.45 0.853,0.641 1.012,0.732c0.181,0.106 0.35,0.068 0.547,-0.207c0.694,-1.009 2.056,-2.19 3.403,-4.506c2.735,-4.681 2.413,-10.3 -2.375,-13.1" style="fill:#697d8b;fill-rule:nonzero;"/><path d="M1680.4,324.727l-0.084,-0.031l-6.51,-2.344l3.147,-3.684l3.388,6.006c0.043,0.038 0.059,0.053 0.09,0.075l-0.031,-0.022Zm-4.056,-11.153c-0.794,-1.506 -0.794,-2.178 0.112,-3.25c0.122,-0.137 0.206,-0.344 0,-0.478c-0.181,-0.153 -0.35,-0.1 -0.609,0.203c-0.76,0.916 -1.522,1.903 -1.697,2.109c-0.45,0.541 -1.15,1.266 -1.613,1.829c-0.206,0.234 -0.268,0.409 -0.062,0.584c0.191,0.159 0.328,0.084 0.684,-0.334c0.472,-0.563 0.769,-0.541 1.028,-0.329c0.191,0.163 0.525,0.604 0.838,1.144l1.159,2.206c0.053,0.085 0.013,0.175 -0.047,0.244l-3.6,4.219c-0.068,0.097 -0.131,0.122 -0.206,0.106l-3.934,-1.331c-0.2,-0.094 0.447,-1.053 0.509,-1.166c0.097,-0.159 0.181,-0.359 0.022,-0.497c-0.169,-0.143 -0.481,-0.006 -0.853,0.435c-0.275,0.328 -1.125,1.484 -1.559,1.997c-0.391,0.462 -1.113,1.172 -1.479,1.618c-0.631,0.747 -0.646,1.007 -0.509,1.119c0.206,0.138 0.328,0.078 0.503,-0.128c0.706,-0.837 2.069,-0.519 3.366,-0.112c3.59,1.081 13.015,4.209 14.331,4.596c0.641,0.182 0.878,0.182 1.059,0.016c0.154,-0.191 0.085,-0.525 -0.281,-1.234l-7.162,-13.566Z" style="fill:#697d8b;fill-rule:nonzero;"/><path d="M1524.88,353.115c-2.603,4.384 -5.625,4.956 -9.759,2.503c-2.544,-1.513 -2.437,-2.094 -0.912,-4.65l5.403,-9.028c0.375,-0.625 0.518,-0.753 1.875,0.053c4.284,2.55 5.897,6.797 3.393,11.122m-2.428,-12.035c-1.172,-0.693 -2.459,-1.387 -3.059,-1.743c-0.55,-0.329 -1.759,-1.16 -2.772,-1.76c-0.397,-0.234 -0.616,-0.222 -0.722,-0.047c-0.115,0.191 -0.025,0.344 0.281,0.535c1.072,0.64 1.363,1.156 0.882,1.972c-0.372,0.625 -0.675,1.187 -2.428,4.15l-2.041,3.415c-2.9,4.888 -3.228,5.078 -4.088,4.569c-0.478,-0.281 -0.715,-0.35 -0.843,-0.144c-0.107,0.181 -0.01,0.378 0.334,0.585c0.775,0.465 2.041,1.143 2.513,1.425c0.965,0.568 2.596,1.865 4.034,2.725c4.931,2.959 10.384,2.709 13.491,-2.522c3.143,-5.282 0.318,-9.644 -5.582,-13.16" style="fill:#697d8b;fill-rule:nonzero;"/><path d="M1546.73,352.544c-0.397,-0.153 -4.682,-1.728 -5.36,-1.978c-0.6,-0.222 -1.925,-0.778 -3.09,-1.203c-0.404,-0.154 -0.616,-0.101 -0.7,0.096c-0.063,0.2 0.046,0.335 0.381,0.466c1.203,0.441 1.559,0.897 1.231,1.781c-0.25,0.685 -0.431,1.263 -1.628,4.491l-1.394,3.769c-0.403,1.118 -0.822,2.162 -1.14,3.015c-0.885,2.397 -1.144,2.566 -2.332,2.122c-0.265,-0.091 -0.462,-0.069 -0.54,0.131c-0.075,0.197 0.031,0.366 0.397,0.504c0.859,0.309 2.253,0.759 2.734,0.943c2.291,0.844 4.353,1.735 6.447,2.503c0.456,0.138 0.684,0.063 0.997,-0.35c0.253,-0.418 0.953,-1.781 1.128,-2.268c0.106,-0.288 0.159,-0.525 -0.1,-0.594c-0.235,-0.084 -0.344,0.037 -0.488,0.275c-0.465,0.806 -0.831,1.087 -1.437,1.156c-0.625,0.031 -2.269,-0.54 -2.81,-0.737c-1.537,-0.572 -1.712,-0.71 -1.181,-2.163c0.228,-0.625 0.928,-2.512 1.813,-4.909c0.015,-0.053 0.068,-0.1 0.159,-0.069c0.159,0.059 2.513,0.997 2.916,1.141c0.997,0.365 0.89,1.272 0.647,1.925c-0.054,0.147 -0.022,0.343 0.175,0.418c0.29,0.11 0.412,-0.165 0.496,-0.393c0.425,-1.144 1.254,-2.588 1.363,-2.878c0.069,-0.197 -0.016,-0.329 -0.163,-0.382c-0.134,-0.053 -0.325,0.107 -0.684,0.207c-0.212,0.046 -0.869,0.128 -2.009,-0.291c-0.907,-0.334 -1.947,-0.753 -2.269,-0.866c-0.113,-0.047 -0.159,-0.09 -0.122,-0.206l2.109,-5.716c0.032,-0.084 0.069,-0.1 0.129,-0.078c4.165,1.531 4.265,1.707 3.928,3.16c-0.038,0.184 -0.128,0.418 0.131,0.509c0.228,0.084 0.394,-0.016 0.472,-0.219c0.647,-1.737 1.125,-2.247 1.278,-2.672c0.069,-0.168 0.053,-0.337 -0.113,-0.397c-0.168,-0.059 -0.625,0.032 -1.371,-0.243" style="fill:#697d8b;fill-rule:nonzero;"/><path d="M1578.87,358.71c-1.194,-0.207 -2.831,-0.953 -5.497,-1.219c-5.391,-0.525 -10.359,2.109 -10.9,7.622c-0.725,6.44 4.119,9.787 9.813,10.344c1.446,0.146 3.212,0.19 4.187,-0.075c0.409,-0.144 0.578,-0.282 0.738,-0.663c0.318,-0.762 0.784,-2.703 0.806,-3.006c0.031,-0.244 -0.047,-0.435 -0.25,-0.45c-0.244,-0.031 -0.313,0.053 -0.481,0.472c-0.722,1.818 -1.857,2.475 -5.091,2.153c-3.997,-0.388 -6.8,-3.356 -6.281,-8.653c0.572,-4.225 2.693,-6.891 7.018,-6.466c2.672,0.259 5.291,1.563 5.053,3.953c-0.028,0.394 0.069,0.616 0.307,0.638c0.25,0.025 0.356,-0.182 0.425,-0.569c0.106,-0.45 0.222,-1.691 0.334,-2.444c0.138,-0.778 0.222,-1.05 0.238,-1.234c0.031,-0.206 -0.085,-0.344 -0.419,-0.403" style="fill:#697d8b;fill-rule:nonzero;"/><path d="M1606.67,373.082c-1.303,0.138 -1.828,0.047 -2.072,-0.975c-0.228,-0.981 -0.425,-2.769 -0.653,-4.825l-0.435,-3.965c-0.381,-3.397 -0.45,-4.029 -0.471,-4.766c-0.047,-0.975 0.228,-1.281 1.262,-1.394c0.366,-0.047 0.503,-0.175 0.481,-0.359c-0.022,-0.213 -0.222,-0.31 -0.615,-0.272c-0.907,0.097 -2.322,0.319 -2.872,0.381c-0.638,0.066 -2.063,0.166 -3.303,0.303c-0.397,0.047 -0.6,0.16 -0.572,0.366c0.025,0.212 0.215,0.312 0.55,0.281c1.119,-0.122 1.734,-0.075 1.894,1.044c0.115,0.722 0.206,1.331 0.587,4.75l0.113,0.997c0,0.059 -0.029,0.1 -0.082,0.106l-8.612,0.913c-0.06,0.009 -0.091,-0.013 -0.091,-0.075l-0.112,-0.975c-0.375,-3.419 -0.444,-4.019 -0.46,-4.757c-0.053,-1.006 0.222,-1.281 1.219,-1.393c0.397,-0.047 0.534,-0.175 0.513,-0.397c-0.025,-0.207 -0.216,-0.282 -0.641,-0.26c-0.884,0.094 -2.291,0.344 -2.841,0.407c-0.637,0.065 -2.1,0.134 -3.309,0.271c-0.428,0.047 -0.594,0.191 -0.566,0.397c0.016,0.213 0.213,0.313 0.55,0.282c1.203,-0.138 1.719,0.084 1.888,1.012c0.144,0.722 0.175,1.331 0.556,4.781l0.441,3.966c0.228,2.062 0.425,3.844 0.403,4.772c-0.006,1.006 -0.166,1.272 -1.225,1.387c-0.266,0.038 -0.481,0.122 -0.45,0.357c0.022,0.212 0.212,0.312 0.609,0.275c0.913,-0.1 2.328,-0.319 2.869,-0.382c0.641,-0.068 2.072,-0.165 3.55,-0.328c0.362,-0.044 0.562,-0.19 0.541,-0.403c-0.025,-0.212 -0.244,-0.275 -0.488,-0.25c-1.303,0.144 -1.828,0.113 -2.094,-0.959c-0.2,-0.96 -0.397,-2.75 -0.625,-4.803l-0.153,-1.363c-0.006,-0.062 0.025,-0.1 0.078,-0.106l8.61,-0.944c0.022,-0.009 0.059,0.022 0.059,0.044l0.159,1.4c0.222,2.056 0.419,3.847 0.397,4.797c-0.006,0.981 -0.1,1.262 -1.218,1.393c-0.272,0.022 -0.472,0.107 -0.457,0.357c0.022,0.175 0.222,0.312 0.647,0.268c0.875,-0.1 2.3,-0.321 2.841,-0.412c0.631,-0.038 2.062,-0.138 3.547,-0.297c0.397,-0.047 0.562,-0.222 0.54,-0.394c-0.022,-0.243 -0.243,-0.284 -0.487,-0.253" style="fill:#697d8b;fill-rule:nonzero;"/><path d="M1623.08,368.606c-1.225,0.357 -1.881,0.397 -2.194,-0.465c-0.334,-0.913 -0.865,-2.625 -1.49,-4.725l-1.128,-3.822c-0.972,-3.297 -1.178,-3.9 -1.322,-4.591c-0.191,-0.99 0.028,-1.303 1.012,-1.6c0.203,-0.059 0.457,-0.19 0.363,-0.487c-0.075,-0.166 -0.272,-0.197 -0.653,-0.091c-0.853,0.25 -2.116,0.684 -2.672,0.853c-0.641,0.181 -2.031,0.531 -2.869,0.785c-0.444,0.128 -0.609,0.303 -0.556,0.478c0.075,0.259 0.356,0.243 0.556,0.184c1.225,-0.359 1.475,-0.053 1.772,0.744c0.275,0.719 0.419,1.303 1.425,4.59l1.125,3.822c0.619,2.103 1.128,3.822 1.272,4.728c0.19,0.997 -0.085,1.235 -0.991,1.5c-0.256,0.075 -0.447,0.197 -0.387,0.404c0.062,0.196 0.281,0.296 0.662,0.184c0.86,-0.291 2.247,-0.763 2.741,-0.906c0.578,-0.169 2.009,-0.497 3.44,-0.922c0.375,-0.106 0.51,-0.306 0.45,-0.51c-0.062,-0.206 -0.318,-0.221 -0.556,-0.153" style="fill:#697d8b;fill-rule:nonzero;"/><path d="M1641.96,357.712c-0.144,-0.334 -0.291,-0.434 -0.488,-0.343c-0.275,0.122 -0.19,0.39 -0.143,0.565c0.409,1.55 0.25,2.297 -1.972,3.31c-2.628,1.197 -2.947,1.081 -4.25,-1.772l-3.707,-8.116c-1.193,-2.625 -1.065,-2.787 0.291,-3.403c0.334,-0.153 0.425,-0.328 0.325,-0.519c-0.044,-0.181 -0.256,-0.212 -0.647,-0.037c-0.828,0.381 -2.328,1.128 -2.8,1.34c-0.578,0.266 -1.919,0.775 -2.909,1.263c-0.394,0.147 -0.51,0.334 -0.425,0.525c0.09,0.2 0.265,0.216 0.6,0.063c1.494,-0.679 1.647,-0.344 2.75,2.062l3.7,8.106c1.528,3.35 1.637,3.807 0.334,4.4c-0.25,0.116 -0.425,0.26 -0.29,0.466c0.084,0.197 0.275,0.244 0.662,0.069c0.831,-0.382 2.109,-1.028 2.581,-1.25c1.691,-0.769 3.138,-1.263 6.15,-2.641c1.082,-0.487 1.219,-0.694 1.135,-1.247c-0.113,-0.687 -0.791,-2.619 -0.897,-2.84" style="fill:#697d8b;fill-rule:nonzero;"/><path d="M1658.49,347.839c-0.159,-0.25 -0.319,-0.441 -0.531,-0.266c-0.207,0.138 -0.178,0.297 -0.069,0.563c0.378,0.844 0.387,1.303 0.081,1.834c-0.35,0.525 -1.781,1.507 -2.259,1.828c-1.372,0.907 -1.585,0.966 -2.438,-0.321c-0.372,-0.563 -1.475,-2.238 -2.884,-4.369c-0.031,-0.053 -0.044,-0.122 0.031,-0.175c0.153,-0.1 2.3,-1.438 2.65,-1.675c0.891,-0.585 1.553,0.031 1.941,0.615c0.084,0.132 0.259,0.229 0.434,0.11c0.26,-0.163 0.113,-0.435 -0.025,-0.641c-0.669,-1.012 -1.347,-2.534 -1.512,-2.787c-0.116,-0.182 -0.269,-0.191 -0.397,-0.107c-0.122,0.085 -0.116,0.329 -0.25,0.679c-0.085,0.196 -0.397,0.778 -1.41,1.446c-0.815,0.532 -1.775,1.135 -2.046,1.316c-0.107,0.063 -0.175,0.078 -0.238,-0.028l-3.366,-5.078c-0.043,-0.078 -0.037,-0.116 0.016,-0.153c3.709,-2.45 3.897,-2.428 4.872,-1.288c0.122,0.138 0.269,0.344 0.487,0.185c0.207,-0.132 0.222,-0.319 0.107,-0.504c-1.019,-1.543 -1.15,-2.231 -1.4,-2.609c-0.1,-0.153 -0.235,-0.253 -0.388,-0.147c-0.153,0.1 -0.344,0.519 -1.006,0.953c-0.356,0.244 -4.163,2.757 -4.772,3.16c-0.534,0.35 -1.766,1.087 -2.803,1.781c-0.356,0.234 -0.441,0.434 -0.325,0.609c0.122,0.182 0.297,0.175 0.6,-0.031c1.066,-0.7 1.644,-0.716 2.162,0.069c0.404,0.609 0.763,1.103 2.657,3.972l2.222,3.35c0.65,0.99 1.25,1.95 1.753,2.712c1.406,2.131 1.384,2.435 0.328,3.144c-0.238,0.144 -0.338,0.319 -0.222,0.5c0.122,0.175 0.312,0.191 0.647,-0.022c0.762,-0.509 1.95,-1.362 2.375,-1.653c2.031,-1.338 3.981,-2.472 5.831,-3.7c0.397,-0.297 0.466,-0.525 0.319,-1.013c-0.191,-0.456 -0.881,-1.825 -1.172,-2.259" style="fill:#697d8b;fill-rule:nonzero;"/><path d="M1448.17,76.052c0,-16.465 -13.37,-29.832 -29.839,-29.832c-16.469,0 -29.839,13.367 -29.839,29.832c0,16.466 13.37,29.833 29.839,29.833c16.469,0 29.839,-13.367 29.839,-29.833Z" style="fill:none;stroke:#05263e;stroke-width:3.13px;"/></svg>