<?xml version="1.0" encoding="UTF-8" standalone="no"?><!DOCTYPE svg PUBLIC "-//W3C//DTD SVG 1.1//EN" "http://www.w3.org/Graphics/SVG/1.1/DTD/svg11.dtd"><svg width="100%" height="100%" viewBox="0 0 1538 318" version="1.1" xmlns="http://www.w3.org/2000/svg" xmlns:xlink="http://www.w3.org/1999/xlink" xml:space="preserve" xmlns:serif="http://www.serif.com/" style="fill-rule:evenodd;clip-rule:evenodd;stroke-linejoin:round;stroke-miterlimit:1.41421;"><path d="M69.691,258.613c5.978,1.381 16.062,1.381 24.309,1.381c63.738,0.465 105.472,-34.391 105.472,-108.219c0,-66.487 -37.606,-98.131 -98.131,-98.131c-15.129,0 -25.672,1.378 -31.65,2.75l0,202.219Zm-69.691,-251.735c25.672,-4.597 59.144,-6.878 94,-6.878c59.144,0 97.675,9.638 127.019,32.091c32.103,23.843 52.275,62.362 52.275,117.403c0,59.137 -21.556,99.959 -50.9,125.187c-32.547,27.047 -82.538,39.888 -143.066,39.888c-36.228,0 -62.369,-2.291 -79.328,-4.591l0,-303.1Z" style="fill:#fdbb30;fill-rule:nonzero;"/><path d="M510.812,239.362c0,29.331 0.921,53.194 1.843,71.99l-60.534,0l-3.216,-31.64l-1.368,0c-8.713,13.753 -29.813,36.687 -70.163,36.687c-45.856,0 -78.866,-28.431 -78.866,-97.675l0,-131.609l69.704,0l0,120.609c0,32.56 10.537,52.272 35.296,52.272c19.266,0 30.725,-13.29 34.857,-24.29c1.837,-4.141 2.75,-9.188 2.75,-15.157l0,-133.434l69.697,0l0,152.247Z" style="fill:#fdbb30;fill-rule:nonzero;"/><path d="M653.776,266.41c27.509,0 44.465,-27.047 44.465,-67.394c0,-33.016 -12.825,-66.959 -44.465,-66.959c-33.025,0 -45.854,33.943 -45.854,67.412c0,38.063 16.047,66.941 45.379,66.941l0.475,0Zm-1.388,49.99c-65.566,0 -116.016,-43.103 -116.016,-115.562c0,-72.456 47.691,-118.76 120.147,-118.76c68.328,0 114.178,47.235 114.178,115.088c0,81.637 -58.234,119.234 -117.856,119.234l-0.453,0Z" style="fill:#fdbb30;fill-rule:nonzero;"/><path d="M975.715,305.86c-12.378,5.959 -35.76,10.54 -62.366,10.54c-72.444,0 -118.762,-44.468 -118.762,-115.093c0,-65.588 44.937,-119.229 128.387,-119.229c18.353,0 38.516,3.21 53.188,8.713l-10.994,51.816c-8.256,-3.675 -20.638,-6.888 -38.981,-6.888c-36.685,0 -60.544,26.147 -60.079,62.834c0,41.269 27.529,63.279 61.441,63.279c16.525,0 29.363,-2.744 39.9,-7.338l8.266,51.366Z" style="fill:#fdbb30;fill-rule:nonzero;"/><path d="M1108.88,26.642l0,164.853c0,49.297 18.685,74.363 51.835,74.363c33.987,0 52.675,-23.791 52.675,-74.363l0,-164.853l64.593,0l0,160.613c0,88.381 -44.618,130.45 -119.4,130.45c-72.231,0 -114.734,-39.928 -114.734,-131.294l0,-159.769l65.031,0Z" style="fill:#05263e;fill-rule:nonzero;"/><path d="M1533.95,304.959c-11.897,5.947 -38.663,12.744 -73.507,12.744c-99,0 -149.987,-62.044 -149.987,-143.615c0,-97.738 69.69,-152.125 156.362,-152.125c33.566,0 59.06,6.8 70.547,12.753l-13.181,51.412c-13.178,-5.531 -31.447,-10.637 -54.378,-10.637c-51.422,0 -91.363,31.028 -91.363,94.765c0,57.36 33.985,93.482 91.769,93.482c19.55,0 41.222,-4.25 53.972,-9.341l9.766,50.562Z" style="fill:#05263e;fill-rule:nonzero;"/></svg>